<svg width="60" height="75" viewBox="0 0 60 75" fill="none" xmlns="http://www.w3.org/2000/svg">
<path d="M3.75451 67.4947H7.50443V71.2441C7.50443 73.3153 9.18315 74.994 11.2544 74.994H56.2506C58.3213 74.994 60 73.3153 60 71.2441V11.2492C60 9.178 58.3213 7.49928 56.2506 7.49928H52.5007V3.74993C52.5007 1.67871 50.822 0 48.7514 0H13.7541C13.7278 0 13.7038 0.0137318 13.6775 0.0148761C13.5665 0.0223142 13.4566 0.0440562 13.3513 0.0801022C13.3124 0.093834 13.2752 0.103561 13.2375 0.121298C13.1007 0.181374 12.976 0.266054 12.8701 0.371331L0.371331 12.8701C0.266626 12.9766 0.181947 13.1007 0.121298 13.2363C0.103561 13.2752 0.093834 13.3141 0.0801022 13.3542C0.0440562 13.4577 0.0223142 13.5659 0.0160204 13.6752C0.0160204 13.7026 0 13.7267 0 13.7541V63.7448C0 64.7403 0.395934 65.6947 1.10026 66.3979C1.80459 67.1016 2.75952 67.4958 3.75451 67.4947ZM56.2506 9.99905C56.9407 9.99905 57.5002 10.5586 57.5002 11.2492V71.2441C57.5002 71.9347 56.9407 72.4942 56.2506 72.4942H11.2544C10.5638 72.4942 10.0042 71.9347 10.0042 71.2441V67.4947H48.7514C50.822 67.4947 52.5007 65.816 52.5007 63.7448V9.99905H56.2506ZM50.001 3.74993V63.7448C50.001 64.4354 49.4414 64.9949 48.7514 64.9949H3.75451C3.06448 64.9949 2.50491 64.4354 2.50491 63.7448V14.9986H11.2544C13.325 14.9986 15.0037 13.3199 15.0037 11.2492V2.49976H48.7514C49.4414 2.49976 50.001 3.05933 50.001 3.74993ZM12.504 4.26716V11.2492C12.504 11.9392 11.9444 12.4988 11.2544 12.4988H4.27231L12.504 4.26716Z" fill="white"/>
<path fill-rule="evenodd" clip-rule="evenodd" d="M8.75403 21.248C8.06401 21.248 7.50444 21.8076 7.50444 22.4982C7.50444 23.1882 8.06401 23.7478 8.75403 23.7478H43.7513C44.4419 23.7478 45.0014 23.1882 45.0014 22.4982C45.0014 21.8076 44.4419 21.248 43.7513 21.248H8.75403Z" fill="white"/>
<path fill-rule="evenodd" clip-rule="evenodd" d="M43.7513 46.2463H8.75402C8.064 46.2463 7.50443 46.8059 7.50443 47.4959C7.50443 48.1865 8.064 48.7461 8.75402 48.7461H43.7513C44.4418 48.7461 45.0014 48.1865 45.0014 47.4959C45.0014 46.8059 44.4418 46.2463 43.7513 46.2463Z" fill="white"/>
<path fill-rule="evenodd" clip-rule="evenodd" d="M43.7513 27.4978H37.5021C36.8115 27.4978 36.252 28.0574 36.252 28.7474C36.252 29.438 36.8115 29.9976 37.5021 29.9976H43.7513C44.4419 29.9976 45.0014 29.438 45.0014 28.7474C45.0014 28.0574 44.4419 27.4978 43.7513 27.4978Z" fill="white"/>
<path fill-rule="evenodd" clip-rule="evenodd" d="M32.5026 28.7474C32.5026 28.0574 31.943 27.4978 31.2524 27.4978H8.75402C8.064 27.4978 7.50443 28.0574 7.50443 28.7474C7.50443 29.438 8.064 29.9976 8.75402 29.9976H31.2524C31.943 29.9976 32.5026 29.438 32.5026 28.7474Z" fill="white"/>
<path fill-rule="evenodd" clip-rule="evenodd" d="M23.7532 52.4954H22.503C21.813 52.4954 21.2534 53.0549 21.2534 53.7455C21.2534 54.4356 21.813 54.9951 22.503 54.9951H23.7532C24.4432 54.9951 25.0028 54.4356 25.0028 53.7455C25.0028 53.0549 24.4432 52.4954 23.7532 52.4954Z" fill="white"/>
<path fill-rule="evenodd" clip-rule="evenodd" d="M16.2539 52.4954H8.75402C8.064 52.4954 7.50443 53.0549 7.50443 53.7455C7.50443 54.4356 8.064 54.9951 8.75402 54.9951H16.2539C16.9439 54.9951 17.5035 54.4356 17.5035 53.7455C17.5035 53.0549 16.9439 52.4954 16.2539 52.4954Z" fill="white"/>
<path fill-rule="evenodd" clip-rule="evenodd" d="M8.75402 36.2466H15.0037C15.6943 36.2466 16.2539 35.687 16.2539 34.997C16.2539 34.3064 15.6943 33.7468 15.0037 33.7468H8.75402C8.064 33.7468 7.50443 34.3064 7.50443 34.997C7.50443 35.687 8.064 36.2466 8.75402 36.2466Z" fill="white"/>
<path fill-rule="evenodd" clip-rule="evenodd" d="M43.7513 33.7468H21.2534C20.5628 33.7468 20.0032 34.3064 20.0032 34.997C20.0032 35.687 20.5628 36.2466 21.2534 36.2466H43.7513C44.4419 36.2466 45.0014 35.687 45.0014 34.997C45.0014 34.3064 44.4419 33.7468 43.7513 33.7468Z" fill="white"/>
<path fill-rule="evenodd" clip-rule="evenodd" d="M8.75402 42.4963H12.5039C13.1945 42.4963 13.7541 41.9368 13.7541 41.2467C13.7541 40.5562 13.1945 39.9966 12.5039 39.9966H8.75402C8.064 39.9966 7.50443 40.5562 7.50443 41.2467C7.50443 41.9368 8.064 42.4963 8.75402 42.4963Z" fill="white"/>
<path fill-rule="evenodd" clip-rule="evenodd" d="M18.7536 42.4963H33.7522C34.4428 42.4963 35.0024 41.9368 35.0024 41.2467C35.0024 40.5562 34.4428 39.9966 33.7522 39.9966H18.7536C18.0631 39.9966 17.5035 40.5562 17.5035 41.2467C17.5035 41.9368 18.0631 42.4963 18.7536 42.4963Z" fill="white"/>
<path fill-rule="evenodd" clip-rule="evenodd" d="M43.7513 39.9966H40.0019C39.3113 39.9966 38.7517 40.5562 38.7517 41.2467C38.7517 41.9368 39.3113 42.4963 40.0019 42.4963H43.7513C44.4419 42.4963 45.0014 41.9368 45.0014 41.2467C45.0014 40.5562 44.4419 39.9966 43.7513 39.9966Z" fill="white"/>
</svg>
