<svg width="70" height="70" viewBox="0 0 70 70" fill="none" xmlns="http://www.w3.org/2000/svg">
<path d="M19.8305 31.5007H11.665C11.0208 31.5007 10.4985 32.023 10.4985 32.6672V44.3322C10.4985 44.9764 11.0208 45.4987 11.665 45.4987H19.8305C20.4747 45.4987 20.997 44.9764 20.997 44.3322V32.6672C20.997 32.023 20.4747 31.5007 19.8305 31.5007ZM18.664 43.1657H12.8315V33.8337H18.664V43.1657Z" fill="white"/>
<path d="M39.6609 31.5007H31.4954C30.8511 31.5007 30.3289 32.023 30.3289 32.6672V44.3322C30.3289 44.9764 30.8511 45.4987 31.4954 45.4987H39.6609C40.3051 45.4987 40.8274 44.9764 40.8274 44.3322V32.6672C40.8274 32.023 40.3051 31.5007 39.6609 31.5007ZM38.4944 43.1657H32.662V33.8337H38.4944V43.1657Z" fill="white"/>
<path d="M39.6609 50.1646H31.4954C30.8511 50.1646 30.3289 50.6868 30.3289 51.331V62.996C30.3289 63.6402 30.8511 64.1625 31.4954 64.1625H39.6609C40.3051 64.1625 40.8274 63.6402 40.8274 62.996V51.331C40.8274 50.687 40.3051 50.1646 39.6609 50.1646ZM38.4944 61.8295H32.662V52.4975H38.4944V61.8295Z" fill="white"/>
<path d="M58.3249 31.5007H50.1594C49.5152 31.5007 48.9929 32.023 48.9929 32.6672V44.3322C48.9929 44.9764 49.5152 45.4987 50.1594 45.4987H58.3249C58.9691 45.4987 59.4914 44.9764 59.4914 44.3322V32.6672C59.4914 32.023 58.9691 31.5007 58.3249 31.5007ZM57.1584 43.1657H51.326V33.8337H57.1584V43.1657Z" fill="white"/>
<path d="M19.8305 50.1646H11.665C11.0208 50.1646 10.4985 50.6868 10.4985 51.331V62.996C10.4985 63.6402 11.0208 64.1625 11.665 64.1625H19.8305C20.4747 64.1625 20.997 63.6402 20.997 62.996V51.331C20.997 50.687 20.4747 50.1646 19.8305 50.1646ZM18.664 61.8295H12.8315V52.4975H18.664V61.8295Z" fill="white"/>
<path d="M58.3249 50.1646H50.1594C49.5152 50.1646 48.9929 50.6868 48.9929 51.331V62.996C48.9929 63.6402 49.5152 64.1625 50.1594 64.1625H58.3249C58.9691 64.1625 59.4914 63.6402 59.4914 62.996V51.331C59.4914 50.687 58.9691 50.1646 58.3249 50.1646ZM57.1584 61.8295H51.326V52.4975H57.1584V61.8295Z" fill="white"/>
<path d="M65.3239 67.6621V28.001H66.4904C67.1346 28.001 67.6569 27.4788 67.6569 26.8345V21.0021C67.6569 20.3579 67.1346 19.8356 66.4904 19.8356H65.3239V15.1697C65.3239 14.5255 64.8017 14.0032 64.1575 14.0032H61.8245V1.17161C61.8245 0.527393 61.3022 0.00512695 60.658 0.00512695H9.33201C8.68779 0.00512695 8.16553 0.527393 8.16553 1.17161V14.0031H5.83256C5.18834 14.0031 4.66607 14.5253 4.66607 15.1696V19.8355H3.49959C2.85537 19.8355 2.33311 20.3578 2.33311 21.002V26.8344C2.33311 27.4786 2.85537 28.0009 3.49959 28.0009H4.66607V67.6618H0V69.9948H5.83256H64.1575H70V67.6618H65.3239V67.6621ZM10.4985 2.3381H59.4914V14.0031H10.4985V2.3381ZM6.99904 16.336H9.33201H60.6579H62.9908V19.8355H6.99904V16.336ZM62.9908 67.6621H6.99904V28.001H62.991V67.6621H62.9908ZM5.83256 25.6681H4.66607V22.1686H5.83256H64.1575H65.3239V25.6681H64.1575H5.83256Z" fill="white"/>
<path d="M33.2032 6.32909C33.0177 5.85495 32.7571 5.44548 32.4211 5.10081C32.0852 4.75614 31.6809 4.48571 31.2085 4.28979C30.736 4.09388 30.2129 3.99585 29.639 3.99585C29.065 3.99585 28.541 4.09292 28.0669 4.2872C27.5927 4.48147 27.1868 4.75177 26.8491 5.09821C26.5114 5.44466 26.2499 5.85495 26.0643 6.32923C25.8788 6.80337 25.7861 7.31866 25.7861 7.87511C25.7861 8.43155 25.8788 8.94685 26.0643 9.42099C26.2499 9.89513 26.5114 10.3054 26.8491 10.652C27.1868 10.9984 27.5927 11.2687 28.0669 11.463C28.541 11.6573 29.065 11.7544 29.639 11.7544C30.2129 11.7544 30.736 11.6573 31.2085 11.463C31.681 11.2689 32.0852 10.9984 32.4211 10.652C32.757 10.3056 33.0177 9.89527 33.2032 9.42099C33.3888 8.94685 33.4815 8.43155 33.4815 7.87511C33.4815 7.31853 33.3886 6.80323 33.2032 6.32909ZM31.8672 8.99566C31.757 9.32638 31.5986 9.60638 31.3921 9.83552C31.1857 10.0648 30.9345 10.2406 30.6388 10.3631C30.3431 10.4856 30.0098 10.5469 29.6388 10.5469C29.2679 10.5469 28.9337 10.4856 28.6363 10.3631C28.3388 10.2406 28.086 10.0648 27.8778 9.83552C27.6695 9.60624 27.5095 9.32638 27.3975 8.99566C27.2855 8.66493 27.2295 8.29142 27.2295 7.87497C27.2295 7.45853 27.2855 7.08501 27.3975 6.75429C27.5095 6.42357 27.6695 6.14274 27.8778 5.91183C28.086 5.68091 28.3388 5.50413 28.6363 5.38163C28.9338 5.25913 29.2679 5.19788 29.6388 5.19788C30.0098 5.19788 30.3431 5.25913 30.6388 5.38163C30.9345 5.50413 31.1855 5.68091 31.3921 5.91183C31.5986 6.14274 31.7569 6.42357 31.8672 6.75429C31.9774 7.08501 32.0325 7.45853 32.0325 7.87497C32.0325 8.29142 31.9776 8.66493 31.8672 8.99566Z" fill="white"/>
<path d="M23.2453 4.07983V7.34481H19.6864V4.07983H18.2639V11.6702H19.6864V8.3527H23.2453V11.6702H24.6679V4.07983H23.2453Z" fill="white"/>
<path d="M47.8539 10.5048V4.07983H46.4417V11.6702H50.8931V10.5048H47.8539Z" fill="white"/>
<path d="M33.5444 4.07983V5.23989H35.8384V11.6702H37.2504V5.23989H39.5337V4.07983H33.5444Z" fill="white"/>
<path d="M45.2188 5.20312V4.07983H40.4314V11.6702H45.2188V10.5416H41.854V8.39468H44.5048V7.30804H41.854V5.20312H45.2188Z" fill="white"/>
</svg>
