<svg xmlns="http://www.w3.org/2000/svg" xmlns:xlink="http://www.w3.org/1999/xlink" xmlns:svgjs="http://svgjs.com/svgjs" version="1.1" width="512" height="512" x="0" y="0" viewBox="0 0 64 64" style="enable-background:new 0 0 512 512" xml:space="preserve"><g><path xmlns="http://www.w3.org/2000/svg" d="M5,58.50879H17.08594a4.26994,4.26994,0,0,0,3.71466-2.19074,8.39245,8.39245,0,0,0,5.39866,2.20136l23.38863.00012c4.28225.11178,7.07467-4.48,4.86606-7.898a5.11321,5.11321,0,0,0,2.716-2.71333,5.17246,5.17246,0,0,0-.26953-4.50976,5.14214,5.14214,0,0,0,1.40121-8.50588,5.76328,5.76328,0,0,0-3.0752-9.72062c-.15746-.09647-15.29144.03659-15.46373-.01583a.9967.9967,0,0,1-.83-.43492.955.955,0,0,1-.11426-.8916c1.28941-3.95894,2.8467-8.94126,1.46895-12.67526-1.14369-3.00015-4.88313-7.00126-8.5705-5.231a4.54563,4.54563,0,0,0-2.60158,4.28618l.167,4.3628c.09971,3.14716-1.61827,5.93171-2.84558,8.70951a42.05776,42.05776,0,0,1-3.07435,5.43453l-2.51886,2.69433a4.27074,4.27074,0,0,0-3.7575-2.26953H5a.99974.99974,0,0,0-1,1V57.50879A.99974.99974,0,0,0,5,58.50879ZM24.87891,30.023a40.5154,40.5154,0,0,0,3.34865-5.85253c1.38882-3.07168,3.20643-6.1815,3.05279-9.67478l-.16707-4.36234a2.54924,2.54924,0,0,1,1.46-2.40234c2.58554-1.12247,5.07571,2.2556,5.84384,4.13216,1.12947,2.88891-.33512,7.88224-1.47161,11.26483a2.9696,2.9696,0,0,0,.34359,2.73289,3.01169,3.01169,0,0,0,2.47364,1.29541H54.957a3.75226,3.75226,0,0,1,1.21471,6.88185,1.00647,1.00647,0,0,0,.00016,1.7075,3.48989,3.48989,0,0,1,1.61228,4.15821,3.32722,3.32722,0,0,1-2.70313,1.94482,1.00687,1.00687,0,0,0-.5527,1.71876A3.15725,3.15725,0,0,1,52.66,49.03559a1.00286,1.00286,0,0,0-.59167,1.72662,3.7454,3.7454,0,0,1,1.08691,3.18652,3.52975,3.52975,0,0,1-3.55664,2.5708l-23.375.00049a6.46421,6.46421,0,0,1-4.8534-2.56025l-.00011-20.18389ZM6,31.14111H17.08594a2.28675,2.28675,0,0,1,2.28418,2.28418V54.22461a2.28674,2.28674,0,0,1-2.28418,2.28418H6Z" fill="#ffffff" data-original="#000000"/><path xmlns="http://www.w3.org/2000/svg" d="M46.5,13A4.50491,4.50491,0,0,1,51,17.5a1.00019,1.00019,0,0,0,2-.00007A4.5049,4.5049,0,0,1,57.5,13a1.00019,1.00019,0,0,0-.00006-2A4.5049,4.5049,0,0,1,53,6.5a1.00019,1.00019,0,0,0-2,.00007A4.5049,4.5049,0,0,1,46.5,11,1.00019,1.00019,0,0,0,46.5,13ZM52,9.96094A6.55455,6.55455,0,0,0,54.03906,12,6.55455,6.55455,0,0,0,52,14.03906,6.55455,6.55455,0,0,0,49.96094,12,6.55455,6.55455,0,0,0,52,9.96094Z" fill="#ffffff" data-original="#000000"/><path xmlns="http://www.w3.org/2000/svg" d="M12.5,13A4.50491,4.50491,0,0,1,17,17.5a1.00019,1.00019,0,0,0,2-.00007A4.5049,4.5049,0,0,1,23.5,13a1.00019,1.00019,0,0,0-.00006-2A4.5049,4.5049,0,0,1,19,6.5a1.00019,1.00019,0,0,0-2,.00007A4.5049,4.5049,0,0,1,12.5,11,1.00019,1.00019,0,0,0,12.5,13ZM18,9.96094A6.55455,6.55455,0,0,0,20.03906,12,6.55455,6.55455,0,0,0,18,14.03906,6.55455,6.55455,0,0,0,15.96094,12,6.55455,6.55455,0,0,0,18,9.96094Z" fill="#ffffff" data-original="#000000"/></g></svg>