<svg xmlns="http://www.w3.org/2000/svg" xmlns:xlink="http://www.w3.org/1999/xlink" xmlns:svgjs="http://svgjs.com/svgjs" version="1.1" width="512" height="512" x="0" y="0" viewBox="0 0 512 512" style="enable-background:new 0 0 512 512" xml:space="preserve"><g><path xmlns="http://www.w3.org/2000/svg" d="m256 0c-141.159 0-256 114.841-256 256s114.841 256 256 256 256-114.841 256-256-114.841-256-256-256zm0 480c-123.514 0-224-100.486-224-224s100.486-224 224-224 224 100.486 224 224-100.486 224-224 224zm120.972-306.943c6.249 6.248 6.249 16.379 0 22.627l-143.26 143.26c-3 3.001-7.07 4.687-11.313 4.687s-8.313-1.686-11.314-4.687l-76.059-76.06c-6.248-6.248-6.248-16.379 0-22.627 6.248-6.249 16.378-6.249 22.627 0l64.745 64.745 131.946-131.945c6.249-6.248 16.38-6.248 22.628 0z" fill="#ffffff" data-original="#000000"/></g></svg>