<svg width="100" height="100" viewBox="0 0 100 100" fill="none" xmlns="http://www.w3.org/2000/svg">
<path d="M37.0968 62.9033C37.0968 60.8037 35.7438 59.0293 33.871 58.3615V51.613C33.871 46.2757 29.5308 41.9355 24.1935 41.9355C18.8563 41.9355 14.5161 46.2757 14.5161 51.613V58.3615C12.6433 59.0293 11.2903 60.8037 11.2903 62.9033V79.0323C11.2903 81.6997 13.4616 83.871 16.129 83.871H32.2581C34.9255 83.871 37.0968 81.6997 37.0968 79.0323V62.9033ZM24.1935 45.1614C27.7517 45.1614 30.6452 48.0548 30.6452 51.613V58.0646H17.7419V51.613C17.7419 48.0548 20.6354 45.1614 24.1935 45.1614ZM33.871 79.0323C33.871 79.9222 33.1464 80.6452 32.2581 80.6452H16.129C15.2407 80.6452 14.5161 79.9222 14.5161 79.0323V62.9033C14.5161 62.0134 15.2407 61.2904 16.129 61.2904H32.2581C33.1464 61.2904 33.871 62.0134 33.871 62.9033V79.0323Z" fill="white"/>
<path d="M24.1936 64.5161C21.5261 64.5161 19.3548 66.6874 19.3548 69.3548C19.3548 71.4544 20.7079 73.2288 22.5806 73.8966V77.4193H25.8065V73.8966C27.6792 73.2288 29.0323 71.4544 29.0323 69.3548C29.0323 66.6874 26.861 64.5161 24.1936 64.5161ZM24.1936 70.9677C23.3052 70.9677 22.5806 70.2448 22.5806 69.3548C22.5806 68.4649 23.3052 67.7419 24.1936 67.7419C25.0819 67.7419 25.8065 68.4649 25.8065 69.3548C25.8065 70.2448 25.0819 70.9677 24.1936 70.9677Z" fill="white"/>
<path d="M25.8065 0V31.4272L24.1935 30.2742L21.1536 32.4487C15.4179 36.5439 8.6599 38.7097 1.6129 38.7097H0V58.0645C0 68.8114 3.55185 79.4662 10.0003 88.0647L10.2287 88.3695L24.1935 95.3519L25.8065 94.5454V100H100V0L25.8065 0ZM62.9032 19.3548C60.2358 19.3548 58.0645 17.1836 58.0645 14.5161C58.0645 11.8487 60.2358 9.67742 62.9032 9.67742C65.5707 9.67742 67.7419 11.8487 67.7419 14.5161C67.7419 17.1836 65.5707 19.3548 62.9032 19.3548ZM67.7419 20.926V30.6853C66.3905 29.6631 64.7256 29.0323 62.9032 29.0323C61.0808 29.0323 59.416 29.6631 58.0645 30.6869V20.9276C59.416 21.9498 61.0808 22.5806 62.9032 22.5806C64.7256 22.5806 66.3905 21.9498 67.7419 20.926ZM62.9032 32.2581C65.5707 32.2581 67.7419 34.4293 67.7419 37.0968C67.7419 39.7642 65.5707 41.9355 62.9032 41.9355C60.2358 41.9355 58.0645 39.7642 58.0645 37.0968C58.0645 34.4293 60.2358 32.2581 62.9032 32.2581ZM70.8047 12.9032C70.055 9.22773 66.7969 6.45161 62.9032 6.45161C59.0096 6.45161 55.7515 9.22773 55.0017 12.9032H40.3226C34.6467 12.9032 29.9482 8.68747 29.1614 3.22581H96.645C95.8583 8.68747 91.1597 12.9032 85.4839 12.9032H70.8047ZM12.3551 85.8257C6.46421 77.8352 3.22581 67.9916 3.22581 58.0645V41.9016C10.3642 41.5953 17.1804 39.2484 23.0288 35.0743L24.1935 34.2403L25.3599 35.0728C31.2067 39.2484 38.0229 41.5937 45.1613 41.9V58.0645C45.1613 67.9916 41.9229 77.8352 36.032 85.8257L24.1935 91.7449L12.3551 85.8257ZM96.7742 96.7742H29.0323V92.9325L38.1584 88.3695L38.3868 88.0647C44.8352 79.4662 48.3871 68.8114 48.3871 58.0645V38.7097H46.7742C40.4486 38.7097 34.3632 36.9503 29.0323 33.6308V10.7162C31.695 14.0129 35.7642 16.129 40.3226 16.129H54.8387V37.0968C54.8387 41.5433 58.4567 45.1613 62.9032 45.1613C67.3497 45.1613 70.9677 41.5433 70.9677 37.0968V16.129H85.4839C90.0422 16.129 94.1115 14.0129 96.7742 10.7162V96.7742Z" fill="white"/>
<path d="M64.5161 14.5161C64.5161 15.4068 63.794 16.129 62.9032 16.129C62.0125 16.129 61.2903 15.4068 61.2903 14.5161C61.2903 13.6254 62.0125 12.9032 62.9032 12.9032C63.794 12.9032 64.5161 13.6254 64.5161 14.5161Z" fill="white"/>
<path d="M64.5161 37.0968C64.5161 37.9875 63.794 38.7097 62.9032 38.7097C62.0125 38.7097 61.2903 37.9875 61.2903 37.0968C61.2903 36.2061 62.0125 35.4839 62.9032 35.4839C63.794 35.4839 64.5161 36.2061 64.5161 37.0968Z" fill="white"/>
<path d="M58.0645 93.5484H93.5484V70.9678H58.0645V93.5484ZM61.2903 74.1936H90.3226V90.3226H61.2903V74.1936Z" fill="white"/>
<path d="M64.5161 77.4193H87.0968V80.6451H64.5161V77.4193Z" fill="white"/>
<path d="M64.5161 83.871H80.6452V87.0968H64.5161V83.871Z" fill="white"/>
<path d="M83.871 83.871H87.0968V87.0968H83.871V83.871Z" fill="white"/>
</svg>
