<svg width="110" height="76" viewBox="0 0 110 76" fill="none" xmlns="http://www.w3.org/2000/svg">
<path d="M38.4476 55.4723C37.5577 55.4723 36.8362 56.1935 36.8362 57.0836C36.8362 57.9737 37.5577 58.6949 38.4476 58.6949H45.0783C45.9682 58.6949 46.6896 57.9737 46.6896 57.0836C46.6896 56.1935 45.9682 55.4723 45.0783 55.4723H38.4476Z" fill="white"/>
<path d="M50.5918 55.4723C49.702 55.4723 48.9805 56.1935 48.9805 57.0836C48.9805 57.9737 49.702 58.6949 50.5918 58.6949H57.2226C58.1125 58.6949 58.8339 57.9737 58.8339 57.0836C58.8339 56.1935 58.1125 55.4723 57.2226 55.4723H50.5918Z" fill="white"/>
<path d="M62.7361 55.4723C61.8462 55.4723 61.1248 56.1935 61.1248 57.0836C61.1248 57.9737 61.8462 58.6949 62.7361 58.6949H69.3668C70.2567 58.6949 70.9781 57.9737 70.9781 57.0836C70.9781 56.1935 70.2567 55.4723 69.3668 55.4723H62.7361Z" fill="white"/>
<path d="M75.3227 52.6804C74.3119 52.6804 73.4897 53.5026 73.4897 54.5134V59.6538C73.4897 60.6646 74.3119 61.4868 75.3227 61.4868H84.7479C85.7588 61.4868 86.581 60.6646 86.581 59.6538V54.5134C86.581 53.5026 85.7586 52.6804 84.7479 52.6804H75.3227ZM83.3583 58.2644H76.7123V55.9032H83.3583V58.2644Z" fill="white"/>
<path d="M91.6622 27.5183L103.479 15.7016C104.28 14.8998 104.28 13.6022 103.479 12.8006L99.9889 9.3111C99.1882 8.50909 97.8895 8.50759 97.087 9.31024L90.2116 16.1855L88.2894 14.2635C87.4895 13.464 86.1882 13.4647 85.3886 14.2637L81.8984 17.7538C81.0966 18.5552 81.0958 19.8535 81.8982 20.6555L88.7603 27.5174C89.5623 28.3207 90.8619 28.3198 91.6622 27.5183ZM86.8392 17.3708L88.7603 19.2917C89.5621 20.0948 90.8617 20.0941 91.6622 19.2925L98.5374 12.4173L100.372 14.2512L90.2116 24.4112L85.0049 19.2047L86.8392 17.3708Z" fill="white"/>
<path d="M92.6885 0C88.3064 0 84.1249 1.64098 80.9145 4.62043C80.2622 5.22564 80.2242 6.24508 80.8294 6.89756C81.4346 7.55004 82.454 7.58785 83.1067 6.98264C85.7192 4.55813 89.1221 3.22287 92.6885 3.22287C100.457 3.22287 106.777 9.54315 106.777 17.3117C106.777 25.0802 100.457 31.4005 92.6885 31.4005C84.9198 31.4005 78.5995 25.0802 78.5995 17.3117C78.5995 15.7489 78.8532 14.2143 79.3538 12.7508C79.6417 11.9086 79.1925 10.9925 78.3505 10.7048C77.5083 10.4173 76.5924 10.8662 76.3046 11.7081C75.9168 12.8421 75.6495 14.01 75.5049 15.1985H9.23635C4.14348 15.198 0 19.3417 0 24.4346V66.7316C0 71.8244 4.14348 75.9679 9.23635 75.9679H85.0633C90.1564 75.9679 94.2996 71.8244 94.2996 66.7316V55.3605C94.2996 54.4704 93.5782 53.7492 92.6883 53.7492C91.7984 53.7492 91.077 54.4704 91.077 55.3605V66.7316C91.077 70.0477 88.3792 72.7452 85.0633 72.7452H9.23635C5.92045 72.7452 3.22266 70.0475 3.22266 66.7316V40.0727H12.4822C13.3721 40.0727 14.0935 39.3514 14.0935 38.4613C14.0935 37.5712 13.3721 36.85 12.4822 36.85H3.22266V29.7101H80.6184C83.3776 32.3969 87.0274 34.1733 91.0772 34.5488V36.8502H20.0017C19.1119 36.8502 18.3904 37.5714 18.3904 38.4615C18.3904 39.3516 19.1119 40.0729 20.0017 40.0729H91.0772V47.8412C91.0772 48.7313 91.7987 49.4525 92.6885 49.4525C93.5784 49.4525 94.2999 48.7313 94.2999 47.8412V34.5488C103.093 33.7333 110 26.3139 110 17.3115C110 7.76596 102.234 0 92.6885 0ZM3.22266 24.4346C3.22266 21.1185 5.92045 18.4209 9.23635 18.4209H75.4121C75.5994 21.3696 76.5284 24.1201 78.0141 26.4874H3.22266V24.4346Z" fill="white"/>
</svg>
