<svg width="100" height="100" viewBox="0 0 100 100" fill="none" xmlns="http://www.w3.org/2000/svg">
<g clip-path="url(#clip0_22_246)">
<path d="M81.154 87.0968L77.4202 75.8935C76.1153 71.9822 72.7863 69.0951 68.7282 68.3564L57.9492 66.3952V65.5597C59.825 64.471 61.4573 63.0145 62.7573 61.2903H66.0137C68.6815 61.2903 70.8524 59.1193 70.8524 56.4516V37.0968C70.8524 25.5355 61.446 16.129 49.8847 16.129C38.3234 16.129 28.9169 25.5355 28.9169 37.0968V48.3871C28.9169 51.4968 31.1282 54.0984 34.0605 54.7048C34.9653 59.3403 37.8621 63.2629 41.8202 65.5597V66.3952L31.0395 68.3564C26.9831 69.0951 23.6524 71.9822 22.3492 75.8935L21.704 77.8306L16.2105 72.3371C15.5815 71.708 15.5815 70.6839 16.2105 70.0548L22.5815 63.6855L10.6234 51.7274L3.42339 58.9274C1.29114 61.0597 0.116943 63.8952 0.116943 66.9113C0.116943 69.9274 1.29114 72.7613 3.42339 74.8935L25.2218 96.6919C27.354 98.8242 30.1895 100 33.2056 100C36.2218 100 39.0556 98.8242 41.1379 96.7403L48.9944 89.5419L46.5444 87.0968H81.154ZM67.6266 56.4516C67.6266 57.3419 66.9024 58.0645 66.0137 58.0645H64.6573C65.125 56.9984 65.4798 55.8742 65.7089 54.7048C66.3992 54.5613 67.0347 54.2871 67.6266 53.9419V56.4516ZM66.0137 51.1645V45.6097C66.9734 46.1693 67.6266 47.1984 67.6266 48.3871C67.6266 49.5758 66.9734 50.6048 66.0137 51.1645ZM33.7556 51.1645C32.796 50.6048 32.1427 49.5758 32.1427 48.3871C32.1427 47.1984 32.796 46.1693 33.7556 45.6097V51.1645ZM33.7556 40.3226V42.1645C33.1815 42.3145 32.6427 42.5403 32.1427 42.8323V37.0968C32.1427 27.3145 40.1024 19.3548 49.8847 19.3548C59.6669 19.3548 67.6266 27.3145 67.6266 37.0968V42.8323C67.1266 42.5403 66.5879 42.3129 66.0137 42.1645V40.3226H64.4008C59.6315 40.3226 55.1476 38.4645 51.7734 35.0919L49.8847 33.2032L47.996 35.0919C44.6218 38.4645 40.1379 40.3226 35.3685 40.3226H33.7556ZM36.9815 51.6129V43.4871C41.825 43.1226 46.3411 41.1242 49.8847 37.7548C53.4282 41.1242 57.9444 43.1242 62.7879 43.4871V51.6129C62.7879 53.9645 62.146 56.1645 61.0427 58.0645H49.8847V61.2903H58.3911C56.1169 63.2919 53.1444 64.5161 49.8847 64.5161C42.7702 64.5161 36.9815 58.7274 36.9815 51.6129ZM54.7234 66.9984V67.0742L49.8847 71.9129L45.046 67.0742V66.9984C46.575 67.479 48.1992 67.7419 49.8847 67.7419C51.5702 67.7419 53.1944 67.479 54.7234 66.9984ZM25.4073 76.9129C26.3379 74.1193 28.7169 72.0564 31.6153 71.5274L42.8895 69.479L49.8847 76.4742L56.8782 69.4806L68.1508 71.529C71.0492 72.0581 73.4282 74.1193 74.3589 76.9145L76.6798 83.871H43.3186L37.0363 77.5887L30.0556 83.9032C29.4476 84.5145 28.3847 84.5145 27.775 83.9032L24.2524 80.3806L25.4073 76.9129ZM10.6218 56.2887L18.0186 63.6855L16.2669 65.4371L8.87017 58.0403L10.6218 56.2887ZM38.904 94.4145C37.3815 95.9339 35.3556 96.7742 33.2024 96.7742C31.0492 96.7742 29.0234 95.9339 27.4992 94.4113L5.70081 72.6145C4.17823 71.0919 3.33952 69.0661 3.33952 66.9129C3.33952 64.7581 4.17823 62.7323 5.70081 61.2097L6.58791 60.3226L13.9847 67.7193L13.9266 67.7774C12.0411 69.6645 12.0411 72.7339 13.9266 74.621L25.4927 86.1871C26.4073 87.1 27.6218 87.6048 28.9153 87.6048C30.2089 87.6048 31.4234 87.1016 32.2782 86.2435L32.3992 86.1355L39.8298 93.5661L38.904 94.4145ZM42.2105 91.3822L34.796 83.9677L36.9266 82.0419L44.3282 89.4435L42.2105 91.3822Z" fill="white"/>
<path d="M95.046 0H72.4653C69.7976 0 67.6266 2.17097 67.6266 4.83871V17.7419C67.6266 20.4097 69.7976 22.5806 72.4653 22.5806H76.7734L75.1056 32.3081L90.6702 22.5806H95.046C97.7137 22.5806 99.8847 20.4097 99.8847 17.7419V4.83871C99.8847 2.17097 97.7137 0 95.046 0ZM96.6589 17.7419C96.6589 18.6306 95.9347 19.3548 95.046 19.3548H89.7444L79.5008 25.7564L80.5992 19.3548H72.4653C71.5766 19.3548 70.8524 18.6306 70.8524 17.7419V4.83871C70.8524 3.95 71.5766 3.22581 72.4653 3.22581H95.046C95.9347 3.22581 96.6589 3.95 96.6589 4.83871V17.7419Z" fill="white"/>
<path d="M93.4331 6.45166H74.0782V9.67747H93.4331V6.45166Z" fill="white"/>
<path d="M86.9815 12.9032H74.0782V16.129H86.9815V12.9032Z" fill="white"/>
<path d="M93.4331 12.9032H90.2073V16.129H93.4331V12.9032Z" fill="white"/>
<path d="M49.8847 4.83875C28.8105 4.83875 10.6573 19.4162 5.93791 39.75L2.88145 34.6549L0.115326 36.3146L5.78468 45.7613L15.2315 40.092L13.5718 37.3258L9.20081 39.9484C13.7718 21.3468 30.4992 8.06455 49.8847 8.06455C54.1218 8.06455 58.3024 8.69358 62.3105 9.93552L63.2653 6.85487C58.9476 5.51616 54.446 4.83875 49.8847 4.83875Z" fill="white"/>
<path d="M99.1008 35.7129L89.654 30.0436L83.9863 39.492L86.7524 41.1516L89.575 36.4468C91.0605 40.7936 91.8202 45.3403 91.8202 50C91.8202 59.592 88.4976 68.9694 82.4669 76.4032L84.9718 78.4355C91.4686 70.4291 95.046 60.3291 95.046 50C95.046 45.0662 94.2508 40.2484 92.7008 35.6355L97.4411 38.4791L99.1008 35.7129Z" fill="white"/>
</g>
<defs>
<clipPath id="clip0_22_246">
<rect width="100" height="100" fill="white"/>
</clipPath>
</defs>
</svg>
