<svg width="100" height="76" viewBox="0 0 100 76" fill="none" xmlns="http://www.w3.org/2000/svg">
<path d="M44.702 52H14C12.894 52 12 51.104 12 50C12 48.896 12.894 48 14 48H44.702C45.808 48 46.702 48.896 46.702 50C46.702 51.104 45.806 52 44.702 52Z" fill="white"/>
<path d="M44.702 28H14C12.894 28 12 27.104 12 26C12 24.896 12.894 24 14 24H44.702C45.808 24 46.702 24.896 46.702 26C46.702 27.104 45.806 28 44.702 28Z" fill="white"/>
<path d="M42 40H2C0.894 40 0 39.104 0 38C0 36.896 0.894 36 2 36H42C43.106 36 44 36.896 44 38C44 39.104 43.106 40 42 40Z" fill="white"/>
<path d="M62 45.8039C58.026 45.8039 54 43.1239 54 37.9999C54 32.8759 58.026 30.1959 62 30.1959C65.974 30.1959 70 32.8759 70 37.9999C70 43.1239 65.974 45.8039 62 45.8039ZM62 34.1959C60.154 34.1959 58 35.1919 58 37.9999C58 40.8079 60.154 41.8039 62 41.8039C63.846 41.8039 66 40.8079 66 37.9999C66 35.1919 63.846 34.1959 62 34.1959Z" fill="white"/>
<path d="M66.242 35.758C65.73 35.758 65.218 35.562 64.828 35.172C64.046 34.39 64.046 33.126 64.828 32.344L76.142 21.03C76.924 20.248 78.188 20.248 78.97 21.03C79.752 21.812 79.752 23.076 78.97 23.858L67.656 35.172C67.266 35.562 66.754 35.758 66.242 35.758Z" fill="white"/>
<path d="M54.93 47.0721C54.418 47.0721 53.906 46.8761 53.516 46.4861C52.734 45.7061 52.734 44.4401 53.516 43.6581L56.344 40.8281C57.126 40.0461 58.39 40.0461 59.172 40.8281C59.954 41.6081 59.954 42.8741 59.172 43.6561L56.344 46.4861C55.954 46.8761 55.442 47.0721 54.93 47.0721Z" fill="white"/>
<path d="M62 76C60.894 76 60 75.104 60 74V68C60 66.896 60.894 66 62 66C63.106 66 64 66.896 64 68V74C64 75.104 63.106 76 62 76Z" fill="white"/>
<path d="M87.456 65.4561C86.944 65.4561 86.432 65.2601 86.042 64.8701L81.8 60.6261C81.018 59.8441 81.018 58.578 81.8 57.798C82.582 57.016 83.846 57.016 84.628 57.798L88.87 62.0421C89.652 62.8241 89.652 64.0901 88.87 64.8701C88.478 65.2601 87.966 65.4561 87.456 65.4561Z" fill="white"/>
<path d="M83.212 18.788C82.7 18.788 82.188 18.592 81.798 18.202C81.016 17.422 81.016 16.156 81.798 15.374L86.04 11.13C86.822 10.348 88.086 10.348 88.868 11.13C89.65 11.91 89.65 13.176 88.868 13.958L84.626 18.202C84.236 18.592 83.724 18.788 83.212 18.788Z" fill="white"/>
<path d="M62 10C60.894 10 60 9.104 60 8V2C60 0.896 60.894 0 62 0C63.106 0 64 0.896 64 2V8C64 9.104 63.106 10 62 10Z" fill="white"/>
<path d="M98 40H92C90.894 40 90 39.104 90 38C90 36.896 90.894 36 92 36H98C99.106 36 100 36.896 100 38C100 39.104 99.106 40 98 40Z" fill="white"/>
<path d="M47.578 16H26C24.894 16 24 15.104 24 14C24 12.896 24.894 12 26 12H47.578C48.684 12 49.578 12.896 49.578 14C49.578 15.104 48.684 16 47.578 16Z" fill="white"/>
<path d="M47.578 64H26C24.894 64 24 63.104 24 62C24 60.896 24.894 60 26 60H47.578C48.684 60 49.578 60.896 49.578 62C49.578 63.104 48.684 64 47.578 64Z" fill="white"/>
<path d="M61.876 75.962C56.014 75.962 50.092 74.612 44.592 71.778C43.61 71.272 43.224 70.066 43.73 69.084C44.236 68.102 45.444 67.716 46.424 68.222C62.112 76.306 81.654 70.89 90.914 55.892C100.2 40.85 96.314 20.932 82.068 10.546C71.75 3.026 57.758 1.938 46.424 7.776C45.444 8.282 44.236 7.898 43.73 6.914C43.224 5.932 43.608 4.726 44.592 4.22C57.258 -2.308 72.89 -1.094 84.424 7.312C100.348 18.92 104.694 41.182 94.316 57.992C87.214 69.5 74.696 75.962 61.876 75.962V75.962Z" fill="white"/>
</svg>
