<svg width="100" height="100" viewBox="0 0 100 100" fill="none" xmlns="http://www.w3.org/2000/svg">
<path d="M95.8984 85.1562H61.9141C59.5703 85.1562 57.6172 83.3984 57.6172 81.0547V18.9453C57.6172 16.6016 59.5703 14.8438 61.9141 14.8438H95.8984C98.0469 14.8438 100 16.7969 100 18.9453V81.0547C100 83.2031 98.0469 85.1562 95.8984 85.1562ZM61.9141 17.5781C61.1328 17.5781 60.3516 18.1641 60.3516 18.9453V81.0547C60.3516 81.8359 61.1328 82.4219 61.9141 82.4219H95.8984C96.4844 82.4219 97.2656 81.8359 97.2656 81.0547V18.9453C97.2656 18.1641 96.4844 17.5781 95.8984 17.5781H61.9141Z" fill="white"/>
<path d="M98.6328 26.9531H58.9844C58.2031 26.9531 57.6172 26.3672 57.6172 25.5859C57.6172 24.8047 58.2031 24.2188 58.9844 24.2188H98.6328C99.4141 24.2188 100 24.8047 100 25.5859C100 26.3672 99.4141 26.9531 98.6328 26.9531Z" fill="white"/>
<path d="M98.6328 75.7812H58.9844C58.2031 75.7812 57.6172 75.1953 57.6172 74.4141C57.6172 73.6328 58.2031 73.0469 58.9844 73.0469H98.6328C99.4141 73.0469 100 73.6328 100 74.4141C100 75.1953 99.4141 75.7812 98.6328 75.7812Z" fill="white"/>
<path d="M82.8125 80.4688H75C74.2188 80.4688 73.6328 79.8828 73.6328 79.1016C73.6328 78.3203 74.2188 77.7344 75 77.7344H82.8125C83.5938 77.7344 84.1797 78.3203 84.1797 79.1016C84.1797 79.8828 83.5938 80.4688 82.8125 80.4688Z" fill="white"/>
<path d="M82.8125 22.2656H75C74.2188 22.2656 73.6328 21.6797 73.6328 20.8984C73.6328 20.1172 74.2188 19.5312 75 19.5312H82.8125C83.5938 19.5312 84.1797 20.1172 84.1797 20.8984C84.1797 21.6797 83.5938 22.2656 82.8125 22.2656Z" fill="white"/>
<path d="M78.9062 59.375C75.7812 59.375 73.4375 57.0312 73.4375 54.1016C73.4375 53.3203 74.0234 52.7344 74.8047 52.7344C75.5859 52.7344 76.1719 53.3203 76.1719 54.1016C76.1719 55.4688 77.3438 56.6406 78.9062 56.6406C80.2734 56.6406 81.4453 55.4688 81.4453 54.1016C81.4453 52.5391 80.2734 51.3672 78.9062 51.3672C75.7812 51.3672 73.4375 49.0234 73.4375 46.0938C73.4375 42.9688 75.7812 40.625 78.9062 40.625C81.8359 40.625 84.1797 42.9688 84.1797 46.0938C84.1797 46.875 83.5938 47.4609 82.8125 47.4609C82.0312 47.4609 81.4453 46.875 81.4453 46.0938C81.4453 44.5312 80.2734 43.3594 78.9062 43.3594C77.3438 43.3594 76.1719 44.5312 76.1719 46.0938C76.1719 47.4609 77.3438 48.6328 78.9062 48.6328C81.8359 48.6328 84.1797 50.9766 84.1797 54.1016C84.1797 57.0312 81.8359 59.375 78.9062 59.375Z" fill="white"/>
<path d="M78.9062 60.9375C78.125 60.9375 77.5391 60.3516 77.5391 59.5703V40.4297C77.5391 39.6484 78.125 39.0625 78.9062 39.0625C79.6875 39.0625 80.2734 39.6484 80.2734 40.4297V59.5703C80.2734 60.3516 79.6875 60.9375 78.9062 60.9375Z" fill="white"/>
<path d="M78.9062 65.8203C74.6094 65.8203 70.7031 64.2578 67.7734 61.1328C64.6484 58.2031 63.0859 54.2969 63.0859 50C63.0859 45.7031 64.6484 41.7969 67.7734 38.8672C70.7031 35.7422 74.6094 34.1797 78.9062 34.1797C87.5 34.1797 94.5312 41.2109 94.5312 50C94.5312 58.7891 87.5 65.8203 78.9062 65.8203ZM78.9062 36.9141C71.6797 36.9141 65.8203 42.7734 65.8203 50C65.8203 57.2266 71.6797 63.0859 78.9062 63.0859C85.9375 63.0859 91.7969 57.2266 91.7969 50C91.7969 42.7734 85.9375 36.9141 78.9062 36.9141Z" fill="white"/>
<path d="M38.0859 85.1562H4.10156C1.95312 85.1562 0 83.2031 0 81.0547V18.9453C0 16.7969 1.95312 14.8438 4.10156 14.8438H38.0859C40.4297 14.8438 42.3828 16.6016 42.3828 18.9453V81.0547C42.3828 83.3984 40.4297 85.1562 38.0859 85.1562ZM4.10156 17.5781C3.51562 17.5781 2.73438 18.1641 2.73438 18.9453V81.0547C2.73438 81.8359 3.51562 82.4219 4.10156 82.4219H38.0859C38.8672 82.4219 39.6484 81.8359 39.6484 81.0547V18.9453C39.6484 18.1641 38.8672 17.5781 38.0859 17.5781H4.10156Z" fill="white"/>
<path d="M41.0156 26.9531H1.36719C0.585938 26.9531 0 26.3672 0 25.5859C0 24.8047 0.585938 24.2188 1.36719 24.2188H41.0156C41.7969 24.2188 42.3828 24.8047 42.3828 25.5859C42.3828 26.3672 41.7969 26.9531 41.0156 26.9531Z" fill="white"/>
<path d="M41.0156 75.7812H1.36719C0.585938 75.7812 0 75.1953 0 74.4141C0 73.6328 0.585938 73.0469 1.36719 73.0469H41.0156C41.7969 73.0469 42.3828 73.6328 42.3828 74.4141C42.3828 75.1953 41.7969 75.7812 41.0156 75.7812Z" fill="white"/>
<path d="M25 80.4688H17.1875C16.4062 80.4688 15.8203 79.8828 15.8203 79.1016C15.8203 78.3203 16.4062 77.7344 17.1875 77.7344H25C25.7812 77.7344 26.3672 78.3203 26.3672 79.1016C26.3672 79.8828 25.7812 80.4688 25 80.4688Z" fill="white"/>
<path d="M25 22.2656H17.1875C16.4062 22.2656 15.8203 21.6797 15.8203 20.8984C15.8203 20.1172 16.4062 19.5312 17.1875 19.5312H25C25.7812 19.5312 26.3672 20.1172 26.3672 20.8984C26.3672 21.6797 25.7812 22.2656 25 22.2656Z" fill="white"/>
<path d="M21.0938 59.375C18.1641 59.375 15.8203 57.0312 15.8203 54.1016C15.8203 53.3203 16.4062 52.7344 17.1875 52.7344C17.9688 52.7344 18.5547 53.3203 18.5547 54.1016C18.5547 55.4688 19.7266 56.6406 21.0938 56.6406C22.6562 56.6406 23.8281 55.4688 23.8281 54.1016C23.8281 52.5391 22.6562 51.3672 21.0938 51.3672C18.1641 51.3672 15.8203 49.0234 15.8203 46.0938C15.8203 42.9688 18.1641 40.625 21.0938 40.625C24.2188 40.625 26.5625 42.9688 26.5625 46.0938C26.5625 46.875 25.9766 47.4609 25.1953 47.4609C24.4141 47.4609 23.8281 46.875 23.8281 46.0938C23.8281 44.5312 22.6562 43.3594 21.0938 43.3594C19.7266 43.3594 18.5547 44.5312 18.5547 46.0938C18.5547 47.4609 19.7266 48.6328 21.0938 48.6328C24.2188 48.6328 26.5625 50.9766 26.5625 54.1016C26.5625 57.0312 24.2188 59.375 21.0938 59.375Z" fill="white"/>
<path d="M21.0938 60.9375C20.3125 60.9375 19.7266 60.3516 19.7266 59.5703V40.4297C19.7266 39.6484 20.3125 39.0625 21.0938 39.0625C21.875 39.0625 22.4609 39.6484 22.4609 40.4297V59.5703C22.4609 60.3516 21.875 60.9375 21.0938 60.9375Z" fill="white"/>
<path d="M21.0938 65.8203C12.5 65.8203 5.46875 58.7891 5.46875 50C5.46875 41.2109 12.5 34.1797 21.0938 34.1797C25.3906 34.1797 29.2969 35.7422 32.2266 38.8672C35.3516 41.7969 36.9141 45.7031 36.9141 50C36.9141 54.2969 35.3516 58.2031 32.2266 61.1328C29.2969 64.2578 25.3906 65.8203 21.0938 65.8203ZM21.0938 36.9141C14.0625 36.9141 8.20312 42.7734 8.20312 50C8.20312 57.2266 14.0625 63.0859 21.0938 63.0859C28.3203 63.0859 34.1797 57.2266 34.1797 50C34.1797 42.7734 28.3203 36.9141 21.0938 36.9141Z" fill="white"/>
<path d="M66.2109 7.03125H33.7891C33.0078 7.03125 32.4219 6.44531 32.4219 5.66406C32.4219 4.88281 33.0078 4.29688 33.7891 4.29688H66.2109C66.9922 4.29688 67.5781 4.88281 67.5781 5.66406C67.5781 6.44531 66.9922 7.03125 66.2109 7.03125Z" fill="white"/>
<path d="M62.1094 10.5469C61.7188 10.5469 61.3281 10.3516 61.1328 10.1562C60.5469 9.5703 60.5469 8.59374 61.1328 8.20312L64.0625 5.66405L61.1328 3.12499C60.5469 2.73437 60.5469 1.7578 61.1328 1.17187C61.5234 0.781241 62.3047 0.585928 62.8906 1.17187L66.9922 4.68749C67.3828 4.8828 67.5781 5.27343 67.5781 5.66405C67.5781 6.05468 67.3828 6.4453 67.1875 6.64062L63.0859 10.1562C62.6953 10.3516 62.5 10.5469 62.1094 10.5469Z" fill="white"/>
<path d="M66.2109 95.7031H33.7891C33.0078 95.7031 32.4219 95.1172 32.4219 94.3359C32.4219 93.5547 33.0078 92.9688 33.7891 92.9688H66.2109C66.9922 92.9688 67.5781 93.5547 67.5781 94.3359C67.5781 95.1172 66.9922 95.7031 66.2109 95.7031Z" fill="white"/>
<path d="M37.8906 99.2188C37.5 99.2188 37.3047 99.0235 36.9141 98.8281L32.8125 95.3125C32.6172 95.1172 32.4219 94.7266 32.4219 94.336C32.4219 93.9453 32.6172 93.5547 32.8125 93.3594L36.9141 89.8438C37.5 89.2578 38.4766 89.4532 38.8672 90.0391C39.4531 90.4297 39.4531 91.4063 38.8672 91.7969L35.9375 94.336L38.8672 96.875C39.4531 97.2656 39.4531 98.2422 38.8672 98.8281C38.6719 99.0235 38.2812 99.2188 37.8906 99.2188Z" fill="white"/>
</svg>
