<svg width="100" height="100" viewBox="0 0 100 100" fill="none" xmlns="http://www.w3.org/2000/svg">
<path d="M31.25 87.5H50V90.625H31.25V87.5Z" fill="white"/>
<path d="M85.9375 45.3125C86.3519 45.3125 86.7493 45.1479 87.0424 44.8549C87.3354 44.5618 87.5 44.1644 87.5 43.75V34.375C87.5001 34.0674 87.4094 33.7666 87.2393 33.5104C87.0692 33.2541 86.8272 33.0537 86.5437 32.9344L68.75 25.4422V10.9375C68.7475 8.86626 67.9236 6.88056 66.459 5.41597C64.9944 3.95138 63.0087 3.12748 60.9375 3.125H20.3125C18.2413 3.12748 16.2556 3.95138 14.791 5.41597C13.3264 6.88056 12.5025 8.86626 12.5 10.9375V89.0625C12.5025 91.1337 13.3264 93.1194 14.791 94.584C16.2556 96.0486 18.2413 96.8725 20.3125 96.875H60.9375C63.0087 96.8725 64.9944 96.0486 66.459 94.584C67.9236 93.1194 68.7475 91.1337 68.75 89.0625V79.6875H85.9375C86.3519 79.6875 86.7493 79.5229 87.0424 79.2299C87.3354 78.9368 87.5 78.5394 87.5 78.125V71.875C87.5 71.4606 87.3354 71.0632 87.0424 70.7701C86.7493 70.4771 86.3519 70.3125 85.9375 70.3125H84.375V45.3125H85.9375ZM84.375 42.1875H28.125V35.4125L56.25 23.5703L84.375 35.4125V42.1875ZM68.75 70.3125V45.3125H75V70.3125H68.75ZM53.125 70.3125V45.3125H59.375V70.3125H53.125ZM37.5 70.3125V45.3125H43.75V70.3125H37.5ZM31.25 45.3125H34.375V70.3125H31.25V45.3125ZM46.875 45.3125H50V70.3125H46.875V45.3125ZM62.5 45.3125H65.625V70.3125H62.5V45.3125ZM52.1594 6.25L50.5969 9.375H30.6531L29.0906 6.25H52.1594ZM65.625 89.0625C65.625 90.3057 65.1311 91.498 64.2521 92.3771C63.373 93.2561 62.1807 93.75 60.9375 93.75H20.3125C19.0693 93.75 17.877 93.2561 16.9979 92.3771C16.1189 91.498 15.625 90.3057 15.625 89.0625V10.9375C15.625 9.6943 16.1189 8.50201 16.9979 7.62294C17.877 6.74386 19.0693 6.25 20.3125 6.25H25.5969L28.2891 11.6359C28.4189 11.8957 28.6185 12.1141 28.8655 12.2667C29.1125 12.4194 29.3971 12.5001 29.6875 12.5H51.5625C51.8542 12.5016 52.1405 12.4215 52.389 12.2688C52.6376 12.1161 52.8384 11.8969 52.9688 11.6359L55.6531 6.25H60.9375C62.1807 6.25 63.373 6.74386 64.2521 7.62294C65.1311 8.50201 65.625 9.6943 65.625 10.9375V24.1266L56.8563 20.4344C56.6643 20.3536 56.4582 20.312 56.25 20.312C56.0418 20.312 55.8357 20.3536 55.6437 20.4344L25.9562 32.9344C25.6728 33.0537 25.4308 33.2541 25.2607 33.5104C25.0906 33.7666 24.9999 34.0674 25 34.375V43.75C25 44.1644 25.1646 44.5618 25.4576 44.8549C25.7507 45.1479 26.1481 45.3125 26.5625 45.3125H28.125V70.3125H26.5625C26.1481 70.3125 25.7507 70.4771 25.4576 70.7701C25.1646 71.0632 25 71.4606 25 71.875V78.125C25 78.5394 25.1646 78.9368 25.4576 79.2299C25.7507 79.5229 26.1481 79.6875 26.5625 79.6875H65.625V89.0625ZM84.375 76.5625H28.125V73.4375H84.375V76.5625ZM81.25 70.3125H78.125V45.3125H81.25V70.3125Z" fill="white"/>
<path d="M18.75 15.625H21.875V28.125H18.75V15.625Z" fill="white"/>
<path d="M18.75 31.25H21.875V34.375H18.75V31.25Z" fill="white"/>
<path d="M54.6875 25V26.5625H53.125C52.7106 26.5625 52.3132 26.7271 52.0201 27.0201C51.7271 27.3132 51.5625 27.7106 51.5625 28.125V32.8125C51.5625 33.2269 51.7271 33.6243 52.0201 33.9174C52.3132 34.2104 52.7106 34.375 53.125 34.375H57.8125V35.9375H51.5625V39.0625H54.6875V40.625H57.8125V39.0625H59.375C59.7894 39.0625 60.1868 38.8979 60.4799 38.6049C60.7729 38.3118 60.9375 37.9144 60.9375 37.5V32.8125C60.9375 32.3981 60.7729 32.0007 60.4799 31.7076C60.1868 31.4146 59.7894 31.25 59.375 31.25H54.6875V29.6875H60.9375V26.5625H57.8125V25H54.6875Z" fill="white"/>
</svg>
