<svg width="100" height="100" viewBox="0 0 100 100" fill="none" xmlns="http://www.w3.org/2000/svg">
<g clip-path="url(#clip0_22_295)">
<path d="M33.3333 73.4167C34.5826 71.5334 35.2979 69.3465 35.4031 67.0889C35.5083 64.8313 34.9995 62.5875 33.9308 60.5961C32.862 58.6047 31.2734 56.9403 29.3339 55.7801C27.3945 54.6198 25.1767 54.0071 22.9167 54.0071C20.6566 54.0071 18.4389 54.6198 16.4994 55.7801C14.5599 56.9403 12.9713 58.6047 11.9026 60.5961C10.8338 62.5875 10.325 64.8313 10.4302 67.0889C10.5354 69.3465 11.2507 71.5334 12.5 73.4167C8.74959 75.3306 5.59894 78.2406 3.39387 81.8276C1.18879 85.4145 0.0145425 89.5396 0 93.7501L0 97.9167C0 98.4693 0.219493 98.9992 0.610194 99.3899C1.00089 99.7806 1.5308 100 2.08333 100C2.63587 100 3.16577 99.7806 3.55647 99.3899C3.94717 98.9992 4.16667 98.4693 4.16667 97.9167V93.7501C4.18228 90.1155 5.25395 86.5637 7.25127 83.5271C9.24859 80.4904 12.0854 78.0997 15.4167 76.6459C17.0103 77.8446 18.8675 78.6446 20.8333 78.9792V83.3334C20.8333 83.8859 21.0528 84.4158 21.4435 84.8065C21.8342 85.1972 22.3641 85.4167 22.9167 85.4167C23.4692 85.4167 23.9991 85.1972 24.3898 84.8065C24.7805 84.4158 25 83.8859 25 83.3334V78.9792C26.9823 78.6448 28.8547 77.8373 30.4583 76.6251C33.7978 78.0689 36.64 80.4613 38.6325 83.5055C40.6249 86.5497 41.6799 90.1118 41.6667 93.7501V97.9167C41.6667 98.4693 41.8862 98.9992 42.2769 99.3899C42.6676 99.7806 43.1975 100 43.75 100C44.3025 100 44.8324 99.7806 45.2231 99.3899C45.6138 98.9992 45.8333 98.4693 45.8333 97.9167V93.7501C45.8353 89.5361 44.6678 85.4042 42.4609 81.8144C40.254 78.2245 37.0943 75.3174 33.3333 73.4167ZM22.9167 58.3334C24.5648 58.3334 26.176 58.8221 27.5464 59.7378C28.9168 60.6535 29.9849 61.955 30.6157 63.4777C31.2464 65.0004 31.4114 66.676 31.0899 68.2925C30.7683 69.909 29.9747 71.3938 28.8092 72.5593C27.6438 73.7247 26.1589 74.5184 24.5424 74.8399C22.9259 75.1615 21.2504 74.9964 19.7276 74.3657C18.2049 73.735 16.9034 72.6669 15.9878 71.2965C15.0721 69.9261 14.5833 68.3149 14.5833 66.6667C14.5833 64.4566 15.4613 62.337 17.0241 60.7742C18.5869 59.2114 20.7065 58.3334 22.9167 58.3334Z" fill="white"/>
<path d="M93.2917 77.5417C91.624 75.8564 89.6967 74.4497 87.5833 73.375C88.8026 71.4874 89.4905 69.306 89.5746 67.0605C89.6587 64.8149 89.1359 62.5882 88.0612 60.6147C86.9866 58.6412 85.3998 56.9939 83.4679 55.8462C81.536 54.6984 79.3305 54.0927 77.0833 54.0927C74.8362 54.0927 72.6306 54.6984 70.6987 55.8462C68.7668 56.9939 67.1801 58.6412 66.1054 60.6147C65.0308 62.5882 64.508 64.8149 64.5921 67.0605C64.6762 69.306 65.3641 71.4874 66.5833 73.375C62.8422 75.3034 59.7044 78.2249 57.5141 81.819C55.3238 85.4132 54.1657 89.5411 54.1667 93.75V97.9166C54.1667 98.4692 54.3861 98.9991 54.7768 99.3898C55.1676 99.7805 55.6975 100 56.25 100C56.8025 100 57.3324 99.7805 57.7231 99.3898C58.1138 98.9991 58.3333 98.4692 58.3333 97.9166V93.75C58.3489 90.1154 59.4206 86.5637 61.4179 83.527C63.4152 80.4903 66.2521 78.0996 69.5833 76.6458C71.1769 77.8445 73.0342 78.6446 75 78.9791V83.3333C75 83.8858 75.2195 84.4158 75.6102 84.8065C76.0009 85.1972 76.5308 85.4166 77.0833 85.4166C77.6359 85.4166 78.1658 85.1972 78.5565 84.8065C78.9472 84.4158 79.1667 83.8858 79.1667 83.3333V78.9791C81.1489 78.6448 83.0213 77.8372 84.625 76.625C86.7571 77.5415 88.6946 78.8567 90.3333 80.5C96.2917 86.4375 95.8333 92.6041 95.8333 97.9166C95.8333 98.4692 96.0528 98.9991 96.4435 99.3898C96.8342 99.7805 97.3641 100 97.9167 100C98.4692 100 98.9991 99.7805 99.3898 99.3898C99.7805 98.9991 100 98.4692 100 97.9166C100 91.9583 100.437 84.6875 93.2917 77.5417ZM77.0833 58.3333C78.7315 58.3333 80.3427 58.8221 81.7131 59.7377C83.0835 60.6534 84.1516 61.9549 84.7823 63.4776C85.4131 65.0003 85.5781 66.6759 85.2565 68.2924C84.935 69.9089 84.1413 71.3938 82.9759 72.5592C81.8104 73.7246 80.3256 74.5183 78.7091 74.8399C77.0926 75.1614 75.417 74.9964 73.8943 74.3656C72.3716 73.7349 71.0701 72.6668 70.1544 71.2964C69.2387 69.926 68.75 68.3148 68.75 66.6666C68.75 64.4565 69.628 62.3369 71.1908 60.7741C72.7536 59.2113 74.8732 58.3333 77.0833 58.3333Z" fill="white"/>
<path d="M44.3542 28.5625C44.5478 28.7578 44.7783 28.9127 45.0321 29.0185C45.286 29.1243 45.5583 29.1787 45.8333 29.1787C46.1084 29.1787 46.3807 29.1243 46.6345 29.0185C46.8884 28.9127 47.1188 28.7578 47.3125 28.5625L59.8125 16.0625C60.2048 15.6702 60.4252 15.1381 60.4252 14.5833C60.4252 14.0285 60.2048 13.4964 59.8125 13.1041C59.4202 12.7118 58.8881 12.4915 58.3333 12.4915C57.7785 12.4915 57.2465 12.7118 56.8542 13.1041L45.8333 24.1458L41.0625 19.3541C40.6702 18.9618 40.1381 18.7415 39.5833 18.7415C39.0285 18.7415 38.4965 18.9618 38.1042 19.3541C37.7119 19.7464 37.4915 20.2785 37.4915 20.8333C37.4915 21.3881 37.7119 21.9202 38.1042 22.3125L44.3542 28.5625Z" fill="white"/>
<path d="M20.8333 41.6667H22.9167V47.9167C22.9186 48.2918 23.0218 48.6595 23.2154 48.9809C23.409 49.3023 23.6858 49.5654 24.0165 49.7425C24.3473 49.9196 24.7197 50.0041 25.0945 49.9871C25.4693 49.9701 25.8325 49.8522 26.1458 49.6458L38.125 41.6667H61.875C74.7917 50.2917 74.125 50 75 50C75.5526 50 76.0825 49.7805 76.4732 49.3898C76.8639 48.9991 77.0834 48.4692 77.0834 47.9167V41.6667H79.1667C80.8243 41.6667 82.414 41.0082 83.5861 39.8361C84.7582 38.664 85.4167 37.0743 85.4167 35.4167V6.25C85.4167 4.5924 84.7582 3.00268 83.5861 1.83058C82.414 0.65848 80.8243 0 79.1667 0L20.8333 0C19.1757 0 17.586 0.65848 16.4139 1.83058C15.2418 3.00268 14.5833 4.5924 14.5833 6.25V35.4167C14.5833 37.0743 15.2418 38.664 16.4139 39.8361C17.586 41.0082 19.1757 41.6667 20.8333 41.6667ZM18.75 6.25C18.75 5.69746 18.9695 5.16756 19.3602 4.77686C19.7509 4.38616 20.2808 4.16667 20.8333 4.16667H79.1667C79.7192 4.16667 80.2491 4.38616 80.6398 4.77686C81.0305 5.16756 81.25 5.69746 81.25 6.25V35.4167C81.25 35.9692 81.0305 36.4991 80.6398 36.8898C80.2491 37.2805 79.7192 37.5 79.1667 37.5H75C74.4475 37.5 73.9176 37.7195 73.5269 38.1102C73.1362 38.5009 72.9167 39.0308 72.9167 39.5833V44.0208C62.9375 37.375 63.375 37.5 62.5 37.5C35.25 37.5 37.1042 37.3542 36.3542 37.8542L27.0833 44.1042V39.5833C27.0833 39.0308 26.8639 38.5009 26.4732 38.1102C26.0824 37.7195 25.5525 37.5 25 37.5H20.8333C20.2808 37.5 19.7509 37.2805 19.3602 36.8898C18.9695 36.4991 18.75 35.9692 18.75 35.4167V6.25Z" fill="white"/>
</g>
<defs>
<clipPath id="clip0_22_295">
<rect width="100" height="100" fill="white"/>
</clipPath>
</defs>
</svg>
