<svg xmlns="http://www.w3.org/2000/svg" xmlns:xlink="http://www.w3.org/1999/xlink" xmlns:svgjs="http://svgjs.com/svgjs" version="1.1" width="512" height="512" x="0" y="0" viewBox="0 0 512 512" style="enable-background:new 0 0 512 512" xml:space="preserve"><g><path xmlns="http://www.w3.org/2000/svg" d="m474.489 335.838s-47.695-123.038-47.753-123.187c-1.71-4.41-7.068-6.39-11.234-4.162l-40.31 21.577c-9.233 4.802-18.771 1.341-33.565-4.707-20.266-8.284-47.706-19.472-83.438 2.687-25.983-15.374-48.179-10.144-66.205-5.886-13.874 3.277-24.833 5.864-35.428-.097-.187-.105-.377-.203-.572-.292l-52.66-24.294c-3.989-1.839-8.721-.117-10.591 3.861 0 0-54.985 116.99-55.001 117.025-1.924 4.093.055 9.127 4.241 10.819.707.305 49.119 22.097 53.739 23.891 3.869 1.502 5.072 5.944 6.729 15.025.886 4.859 1.798 9.84 3.845 14.37l-7.886 14.744c-3.884 7.262-4.701 15.624-2.3 23.546 2.401 7.923 7.723 14.425 14.984 18.308 4.529 2.422 9.486 3.652 14.498 3.652.682 0 1.364-.03 2.047-.076-2.552 12.988 3.492 26.689 15.756 33.248 9.433 5.045 21.116 4.741 30.325-.666 2.656 6.3 7.397 11.767 13.882 15.235 8.477 4.534 19.004 4.789 27.783.676 2.449 7.132 7.483 13.395 14.641 17.223 4.529 2.422 9.485 3.652 14.497 3.652 9.954 0 19.553-4.902 25.307-13.031l10.884 5.986c4.715 2.592 9.815 3.822 14.851 3.822 10.922 0 21.525-5.79 27.149-16.015 3.588-6.522 4.559-13.798 3.266-20.61 10.289-.585 20.07-6.281 25.391-15.958 3.019-5.487 4.165-11.528 3.663-17.384 1.442.205 2.889.318 4.331.318 10.922 0 21.525-5.79 27.149-16.016 3.417-6.212 4.432-13.133 3.372-19.691 2.64-.049 5.298-.429 7.917-1.173 8.058-2.29 14.708-7.574 18.725-14.877 3.434-6.243 4.435-13.225 3.322-19.836l50.328-21.458c3.969-1.691 5.88-6.226 4.321-10.249zm-355.861 89.12c-7.13-3.815-9.934-13.072-6.122-20.2 0 0 14.55-27.204 14.558-27.219 3.819-7.14 13.083-9.929 20.213-6.114 7.127 3.813 9.923 13.066 6.11 20.193 0 0-14.579 27.253-14.587 27.269-3.806 7.114-13.077 9.867-20.172 6.071zm43.662 37.92c-3.831 1.162-7.867.771-11.361-1.096-7.257-3.881-10.003-12.944-6.122-20.201l19.754-36.929c3.896-7.219 12.93-9.948 20.185-6.067 3.477 1.852 6.032 4.979 7.196 8.808 1.169 3.846.784 7.888-1.085 11.383 0 .001-.001.002-.001.003l-19.726 36.881c-1.868 3.494-5.008 6.057-8.84 7.218zm44.207 14.57c-3.833 1.161-7.867.772-11.361-1.096-7.257-3.881-10.003-12.943-6.122-20.201 0 0 15.95-29.826 15.95-29.826.906-2.718 5.496-5.904 8.017-6.916 3.908-1.569 8.51-1.17 12.196.802 3.477 1.852 6.032 4.979 7.196 8.808 1.169 3.847.784 7.89-1.085 11.386l-15.951 29.827c-1.868 3.492-5.007 6.055-8.84 7.216zm42.424 17.9c-3.833 1.161-7.867.772-11.361-1.097-7.256-3.88-10.003-12.942-6.122-20.2 0 0 13.957-26.099 13.96-26.104 3.65-7.232 13.188-9.868 20.211-6.111 7.124 3.812 9.916 13.077 6.11 20.194l-13.958 26.1c-1.867 3.493-5.007 6.056-8.84 7.218zm59.762-10.285c-3.966 7.21-13.062 9.848-20.271 5.884l-10.828-5.955 8.245-15.417c2.044-3.823 3.229-7.954 3.55-12.165l13.295 7.312.107.059c7.21 3.991 9.858 13.09 5.902 20.282zm93.815-105.391c-3.868 7.033-13.138 9.911-20.191 5.929l-56.841-32.107c-3.847-2.174-8.727-.816-10.9 3.031s-.816 8.727 3.031 10.9c0 0 48.737 27.568 48.935 27.679 7.209 4.058 9.88 13.169 5.952 20.31-3.966 7.21-13.061 9.848-20.271 5.884l-61.917-34.602c-3.85-2.167-8.729-.803-10.896 3.048-2.167 3.85-.802 8.729 3.048 10.896l48.942 27.546c7.21 4.059 9.88 13.169 5.952 20.311-3.965 7.21-13.06 9.848-20.271 5.884l-34.79-19.235c-2.509-3.011-5.591-5.535-9.137-7.423-7.262-3.884-15.625-4.7-23.547-2.3-.502.152-.998.316-1.488.491-.129-.517-.271-1.033-.427-1.547-2.409-7.922-7.729-14.413-14.97-18.269-7.262-3.884-15.625-4.701-23.547-2.3-.502.152-.997.316-1.487.491-.129-.517-.271-1.032-.427-1.546-2.409-7.923-7.729-14.414-14.971-18.27-6.78-3.626-14.318-4.452-21.292-2.897-.203-2.009-.604-4.016-1.206-5.995-2.409-7.922-7.729-14.413-14.97-18.27-7.262-3.884-15.625-4.7-23.547-2.3-5.213 1.58-9.805 4.431-13.447 8.261-1.712-9.106-4.542-20.541-16.317-25.112-4.611-1.791-29.726-13.108-43.219-19.188-.956-.431-1.821-.821-2.606-1.174l48.157-102.462 45.169 20.838c15.94 8.818 31.555 5.129 46.659 1.561 15.62-3.69 30.511-7.207 48.093.778-4.092 3.396-8.167 7.127-12.186 11.189-15.483 15.646-35.273 30.419-58.819 43.907-1.971 1.129-3.369 3.042-3.845 5.263s.013 4.539 1.347 6.377c30.916 42.601 67.488 27.794 96.875 15.898 19.566-7.921 36.466-14.764 50.092-6.997l79.292 45.194c7.208 4.106 9.894 13.226 5.988 20.328zm10.775-26.719c-2.39-2.958-5.354-5.525-8.841-7.512l-79.292-45.194c-6.939-3.955-14.087-5.519-21.35-5.519-14.05 0-28.52 5.857-42.669 11.585-26.878 10.881-50.378 20.396-72.341-3.586 21.295-12.917 39.483-26.943 54.16-41.775 6.461-6.529 13.024-12.112 19.508-16.594 30.977-21.417 52.403-12.658 73.123-4.189 15.104 6.175 30.723 12.559 47.086 4.047l32.426-17.356 41.689 107.546zm-228.132-156.535c4.418 0 8-3.582 8-8v-64.369c0-12.204 13.061-18.123 24.018-20.939 25.31-6.509 51.469-6.503 77.75.017 8.945 2.219 23.951 7.887 23.951 20.922v64.369c0 4.418 3.582 8 8 8s8-3.582 8-8v-64.369c0-17.476-13.158-30.762-36.099-36.452-7.251-1.799-14.496-3.144-21.724-4.039 11.306-8.82 18.849-24.513 18.849-42.376 0-13.082-4.105-23.839-11.872-31.111-7.037-6.589-16.724-10.071-28.014-10.071s-20.978 3.482-28.015 10.071c-7.767 7.271-11.872 18.029-11.872 31.111 0 17.828 7.515 33.494 18.784 42.324-7.291.897-14.537 2.261-21.723 4.109-22.899 5.887-36.033 19.167-36.033 36.435v64.369c0 4.418 3.581 7.999 8 7.999zm70.859-180.418c10.897 0 23.887 4.369 23.887 25.182 0 18.381-10.939 33.909-23.887 33.909s-23.887-15.528-23.887-33.909c0-20.813 12.99-25.182 23.887-25.182zm-38.661 114.847c4.418 0 8 3.582 8 8v49.572c0 4.418-3.582 8-8 8s-8-3.582-8-8v-49.572c0-4.419 3.582-8 8-8zm77.321 0c4.418 0 8 3.582 8 8v49.572c0 4.418-3.582 8-8 8s-8-3.582-8-8v-49.572c0-4.419 3.581-8 8-8z" fill="#ffffff" data-original="#000000"/></g></svg>