<svg width="100" height="100" viewBox="0 0 100 100" fill="none" xmlns="http://www.w3.org/2000/svg">
<g clip-path="url(#clip0_22_151)">
<path d="M10.6517 69.6233L16.6517 75.6233V91.6667C16.6543 93.876 17.5331 95.9941 19.0954 97.5563C20.6576 99.1185 22.7757 99.9974 24.985 100H91.6667C93.876 99.9974 95.9941 99.1185 97.5563 97.5563C99.1186 95.9941 99.9974 93.876 100 91.6667V50C99.9936 47.8965 99.1906 45.8734 97.7527 44.3381C96.3147 42.8028 94.3486 41.8691 92.25 41.725C93.0904 40.1532 93.4057 38.3537 93.1499 36.5897C92.8941 34.8258 92.0806 33.19 90.8284 31.9217L69.605 10.685L69.595 10.6666H69.58L61.3617 2.43831C59.7994 0.879108 57.6823 0.00341797 55.475 0.00341797C53.2678 0.00341797 51.1507 0.879108 49.5883 2.43831L2.435 49.61C0.88053 51.1806 0.00857544 53.3011 0.00857544 55.5108C0.00857544 57.7206 0.88053 59.8411 2.435 61.4117L10.6517 69.6233ZM61.35 7.13998L66.0583 11.8516L36.26 41.6667H26.8333L61.35 7.13998ZM16.6667 61.26L11.8333 66.0933L7.12334 61.3833L16.6667 51.8333V61.26ZM14.19 68.45L16.6667 65.9733V70.9267L14.19 68.45ZM96.6667 50V91.6667C96.6667 92.9927 96.1399 94.2645 95.2022 95.2022C94.2645 96.1399 92.9928 96.6667 91.6667 96.6667H25C23.6739 96.6667 22.4022 96.1399 21.4645 95.2022C20.5268 94.2645 20 92.9927 20 91.6667V50C20 48.6739 20.5268 47.4021 21.4645 46.4645C22.4022 45.5268 23.6739 45 25 45H91.6667C92.9928 45 94.2645 45.5268 95.2022 46.4645C96.1399 47.4021 96.6667 48.6739 96.6667 50ZM88.4717 41.355L88.1667 41.6667H40.9717L68.415 14.21L88.4667 34.2733C89.4018 35.2142 89.927 36.4866 89.928 37.8131C89.9289 39.1396 89.4054 40.4128 88.4717 41.355ZM4.79501 51.9617L51.945 4.79498C52.8946 3.8875 54.157 3.38025 55.4705 3.37839C56.784 3.37653 58.0478 3.8802 59 4.78498L21.1267 42.6667C19.6533 43.4473 18.4481 44.652 17.6667 46.125L4.77001 59.0233C3.84896 58.0773 3.33565 56.8077 3.34033 55.4874C3.345 54.167 3.86729 52.9012 4.79501 51.9617Z" fill="white"/>
<path d="M26.6667 63.3333H36.6667C37.5507 63.3333 38.3986 62.9822 39.0237 62.357C39.6488 61.7319 40 60.8841 40 60V53.3333C40 52.4493 39.6488 51.6014 39.0237 50.9763C38.3986 50.3512 37.5507 50 36.6667 50H26.6667C25.7826 50 24.9348 50.3512 24.3097 50.9763C23.6845 51.6014 23.3333 52.4493 23.3333 53.3333V60C23.3333 60.8841 23.6845 61.7319 24.3097 62.357C24.9348 62.9822 25.7826 63.3333 26.6667 63.3333ZM26.6667 53.3333H36.6667V60H26.6667V53.3333Z" fill="white"/>
<path d="M25 73.3333C25.442 73.3333 25.866 73.1577 26.1785 72.8451C26.4911 72.5326 26.6667 72.1087 26.6667 71.6666V68.3333C26.6667 67.8913 26.4911 67.4673 26.1785 67.1548C25.866 66.8422 25.442 66.6666 25 66.6666C24.558 66.6666 24.1341 66.8422 23.8215 67.1548C23.5089 67.4673 23.3333 67.8913 23.3333 68.3333V71.6666C23.3333 72.1087 23.5089 72.5326 23.8215 72.8451C24.1341 73.1577 24.558 73.3333 25 73.3333Z" fill="white"/>
<path d="M31.6667 66.6666C31.2246 66.6666 30.8007 66.8422 30.4882 67.1548C30.1756 67.4673 30 67.8913 30 68.3333V71.6666C30 72.1087 30.1756 72.5326 30.4882 72.8451C30.8007 73.1577 31.2246 73.3333 31.6667 73.3333C32.1087 73.3333 32.5326 73.1577 32.8452 72.8451C33.1577 72.5326 33.3333 72.1087 33.3333 71.6666V68.3333C33.3333 67.8913 33.1577 67.4673 32.8452 67.1548C32.5326 66.8422 32.1087 66.6666 31.6667 66.6666Z" fill="white"/>
<path d="M36.6667 68.3333V71.6666C36.6667 72.1087 36.8423 72.5326 37.1548 72.8451C37.4674 73.1577 37.8913 73.3333 38.3333 73.3333C38.7754 73.3333 39.1993 73.1577 39.5119 72.8451C39.8244 72.5326 40 72.1087 40 71.6666V68.3333C40 67.8913 39.8244 67.4673 39.5119 67.1548C39.1993 66.8422 38.7754 66.6666 38.3333 66.6666C37.8913 66.6666 37.4674 66.8422 37.1548 67.1548C36.8423 67.4673 36.6667 67.8913 36.6667 68.3333Z" fill="white"/>
<path d="M45 66.6666C44.558 66.6666 44.1341 66.8422 43.8215 67.1548C43.5089 67.4673 43.3333 67.8913 43.3333 68.3333V71.6666C43.3333 72.1087 43.5089 72.5326 43.8215 72.8451C44.1341 73.1577 44.558 73.3333 45 73.3333C45.442 73.3333 45.866 73.1577 46.1785 72.8451C46.4911 72.5326 46.6667 72.1087 46.6667 71.6666V68.3333C46.6667 67.8913 46.4911 67.4673 46.1785 67.1548C45.866 66.8422 45.442 66.6666 45 66.6666Z" fill="white"/>
<path d="M51.6667 73.3333C52.1087 73.3333 52.5326 73.1577 52.8452 72.8451C53.1577 72.5326 53.3333 72.1087 53.3333 71.6666V68.3333C53.3333 67.8913 53.1577 67.4673 52.8452 67.1548C52.5326 66.8422 52.1087 66.6666 51.6667 66.6666C51.2246 66.6666 50.8007 66.8422 50.4882 67.1548C50.1756 67.4673 50 67.8913 50 68.3333V71.6666C50 72.1087 50.1756 72.5326 50.4882 72.8451C50.8007 73.1577 51.2246 73.3333 51.6667 73.3333Z" fill="white"/>
<path d="M65 66.6666C64.558 66.6666 64.134 66.8422 63.8215 67.1548C63.5089 67.4673 63.3333 67.8913 63.3333 68.3333V71.6666C63.3333 72.1087 63.5089 72.5326 63.8215 72.8451C64.134 73.1577 64.558 73.3333 65 73.3333C65.442 73.3333 65.866 73.1577 66.1785 72.8451C66.4911 72.5326 66.6667 72.1087 66.6667 71.6666V68.3333C66.6667 67.8913 66.4911 67.4673 66.1785 67.1548C65.866 66.8422 65.442 66.6666 65 66.6666Z" fill="white"/>
<path d="M71.6667 66.6666C71.2246 66.6666 70.8007 66.8422 70.4882 67.1548C70.1756 67.4673 70 67.8913 70 68.3333V71.6666C70 72.1087 70.1756 72.5326 70.4882 72.8451C70.8007 73.1577 71.2246 73.3333 71.6667 73.3333C72.1087 73.3333 72.5326 73.1577 72.8452 72.8451C73.1577 72.5326 73.3333 72.1087 73.3333 71.6666V68.3333C73.3333 67.8913 73.1577 67.4673 72.8452 67.1548C72.5326 66.8422 72.1087 66.6666 71.6667 66.6666Z" fill="white"/>
<path d="M78.3333 66.6666C77.8913 66.6666 77.4674 66.8422 77.1548 67.1548C76.8423 67.4673 76.6667 67.8913 76.6667 68.3333V71.6666C76.6667 72.1087 76.8423 72.5326 77.1548 72.8451C77.4674 73.1577 77.8913 73.3333 78.3333 73.3333C78.7754 73.3333 79.1993 73.1577 79.5118 72.8451C79.8244 72.5326 80 72.1087 80 71.6666V68.3333C80 67.8913 79.8244 67.4673 79.5118 67.1548C79.1993 66.8422 78.7754 66.6666 78.3333 66.6666Z" fill="white"/>
<path d="M85 66.6666C84.558 66.6666 84.134 66.8422 83.8215 67.1548C83.5089 67.4673 83.3333 67.8913 83.3333 68.3333V71.6666C83.3333 72.1087 83.5089 72.5326 83.8215 72.8451C84.134 73.1577 84.558 73.3333 85 73.3333C85.442 73.3333 85.866 73.1577 86.1785 72.8451C86.4911 72.5326 86.6667 72.1087 86.6667 71.6666V68.3333C86.6667 67.8913 86.4911 67.4673 86.1785 67.1548C85.866 66.8422 85.442 66.6666 85 66.6666Z" fill="white"/>
<path d="M31.6667 76.6666H25C24.558 76.6666 24.1341 76.8422 23.8215 77.1548C23.5089 77.4673 23.3333 77.8913 23.3333 78.3333C23.3333 78.7753 23.5089 79.1993 23.8215 79.5118C24.1341 79.8244 24.558 80 25 80H31.6667C32.1087 80 32.5326 79.8244 32.8452 79.5118C33.1577 79.1993 33.3333 78.7753 33.3333 78.3333C33.3333 77.8913 33.1577 77.4673 32.8452 77.1548C32.5326 76.8422 32.1087 76.6666 31.6667 76.6666Z" fill="white"/>
<path d="M45 76.6666H38.3333C37.8913 76.6666 37.4674 76.8422 37.1548 77.1548C36.8423 77.4673 36.6667 77.8913 36.6667 78.3333C36.6667 78.7753 36.8423 79.1993 37.1548 79.5118C37.4674 79.8244 37.8913 80 38.3333 80H45C45.442 80 45.866 79.8244 46.1785 79.5118C46.4911 79.1993 46.6667 78.7753 46.6667 78.3333C46.6667 77.8913 46.4911 77.4673 46.1785 77.1548C45.866 76.8422 45.442 76.6666 45 76.6666Z" fill="white"/>
<path d="M31.6667 83.3333H25C24.558 83.3333 24.1341 83.5089 23.8215 83.8215C23.5089 84.134 23.3333 84.558 23.3333 85C23.3333 85.442 23.5089 85.8659 23.8215 86.1785C24.1341 86.4911 24.558 86.6667 25 86.6667H31.6667C32.1087 86.6667 32.5326 86.4911 32.8452 86.1785C33.1577 85.8659 33.3333 85.442 33.3333 85C33.3333 84.558 33.1577 84.134 32.8452 83.8215C32.5326 83.5089 32.1087 83.3333 31.6667 83.3333Z" fill="white"/>
<path d="M45 83.3333H38.3333C37.8913 83.3333 37.4674 83.5089 37.1548 83.8215C36.8423 84.134 36.6667 84.558 36.6667 85C36.6667 85.442 36.8423 85.8659 37.1548 86.1785C37.4674 86.4911 37.8913 86.6667 38.3333 86.6667H45C45.442 86.6667 45.866 86.4911 46.1785 86.1785C46.4911 85.8659 46.6667 85.442 46.6667 85C46.6667 84.558 46.4911 84.134 46.1785 83.8215C45.866 83.5089 45.442 83.3333 45 83.3333Z" fill="white"/>
<path d="M58.3333 76.6666H51.6667C51.2246 76.6666 50.8007 76.8422 50.4882 77.1548C50.1756 77.4673 50 77.8913 50 78.3333C50 78.7753 50.1756 79.1993 50.4882 79.5118C50.8007 79.8244 51.2246 80 51.6667 80H58.3333C58.7754 80 59.1993 79.8244 59.5118 79.5118C59.8244 79.1993 60 78.7753 60 78.3333C60 77.8913 59.8244 77.4673 59.5118 77.1548C59.1993 76.8422 58.7754 76.6666 58.3333 76.6666Z" fill="white"/>
</g>
<defs>
<clipPath id="clip0_22_151">
<rect width="100" height="100" fill="white"/>
</clipPath>
</defs>
</svg>
