<svg width="100" height="100" viewBox="0 0 100 100" fill="none" xmlns="http://www.w3.org/2000/svg">
<g clip-path="url(#clip0_22_144)">
<path d="M52.9867 58.0283C52.9867 58.8373 53.6424 59.4931 54.4515 59.4931C55.2607 59.4931 55.9164 58.8373 55.9164 58.0283C55.9164 55.3939 53.8674 53.4252 51.4648 53.5586V52.7486C51.4648 51.9397 50.8092 51.2838 50 51.2838C49.191 51.2838 48.5352 51.9397 48.5352 52.7486V53.5586C46.1192 53.3957 44.0793 55.4352 44.0836 58.0283V60.0314C44.0715 62.592 46.1192 64.6871 48.5352 64.5011V69.5843C47.7033 69.6847 47.0133 69.0611 47.0133 68.0443C47.0133 67.2353 46.3574 66.5794 45.5485 66.5794C44.7395 66.5794 44.0836 67.2353 44.0836 68.0443C44.0836 70.6046 46.1192 72.7001 48.5352 72.514V73.3242C48.5352 74.1331 49.191 74.789 50 74.789C50.8092 74.789 51.4648 74.1331 51.4648 73.3242V72.514C53.8578 72.6472 55.9228 70.6593 55.9164 68.0443V66.041C55.9222 63.406 53.8672 61.4385 51.4648 61.5713V56.4883C52.2717 56.3498 52.9867 57.0398 52.9867 58.0283ZM48.5352 61.5717C47.7035 61.6722 47.0145 61.0482 47.0133 60.0316V58.0285C47.0113 57.0615 47.7307 56.3385 48.5352 56.4885V61.5717ZM52.9867 66.0412V68.0445C52.9744 69.0062 52.2807 69.7388 51.4648 69.5845V64.5013C52.2717 64.3623 52.9883 65.0529 52.9867 66.0412ZM56.7383 15.6043C56.7383 11.8888 53.7154 8.866 50 8.866C46.2846 8.866 43.2617 11.8888 43.2617 15.6043C43.2617 19.3197 46.2846 22.3425 50 22.3425C53.7154 22.3425 56.7383 19.3197 56.7383 15.6043ZM46.1914 15.6043C46.1914 13.5043 47.9 11.7957 50 11.7957C52.1 11.7957 53.8086 13.5043 53.8086 15.6043C53.8086 17.7043 52.1 19.4128 50 19.4128C47.9 19.4128 46.1914 17.7043 46.1914 15.6043ZM50 46.2518C40.745 46.2518 33.2153 53.7814 33.2153 63.0365C33.2153 72.2915 40.745 79.8212 50 79.8212C59.2552 79.8212 66.7847 72.2915 66.7847 63.0365C66.7847 53.7814 59.2552 46.2518 50 46.2518ZM50 76.8915C42.3604 76.8915 36.145 70.6761 36.145 63.0365C36.145 55.3969 42.3604 49.1815 50 49.1815C57.6396 49.1815 63.855 55.3969 63.855 63.0365C63.855 70.6761 57.6396 76.8915 50 76.8915ZM93.4319 37.8116C96.8223 38.0237 100.029 35.5583 99.9998 31.9522V27.5577C99.9756 27.138 99.8375 26.6062 99.2303 26.2683L53.5512 0.944747C51.3277 -0.28806 48.6725 -0.28806 46.4488 0.944747L28.0192 11.1619C27.3116 11.5541 27.056 12.4457 27.4483 13.1533C27.8405 13.8609 28.7323 14.1168 29.4397 13.7242L47.8693 3.50704C49.2037 2.7674 50.7967 2.76759 52.1309 3.50704L92.8717 26.0929H7.12849L23.3933 17.0759C24.1009 16.6837 24.3565 15.7921 23.9642 15.0845C23.572 14.3769 22.6804 14.1213 21.9728 14.5136L0.770121 26.2681C0.433404 26.4653 -0.00565696 26.8872 0.000202395 27.5577V31.9522C-0.0310475 35.4014 3.08691 38.1882 6.56814 37.8116L11.7189 45.0618V81.0112L6.56814 88.2612H3.41816C1.53359 88.2612 0.000202395 89.7946 0.000202395 91.6792V96.5619C0.000202395 98.4465 1.53359 99.9799 3.41816 99.9799H96.5818C98.4664 99.9799 99.9998 98.4465 99.9998 96.5619V91.6792C99.9998 89.7946 98.4664 88.2612 96.5818 88.2612H93.4319L88.2811 81.0112V45.0618L93.4319 37.8116ZM5.85955 34.8819C4.24413 34.8819 2.92988 33.5677 2.92988 31.9522V29.0226H97.0701V31.9522C97.0701 33.5677 95.7559 34.8819 94.1404 34.8819H5.85955ZM75.0485 64.2943C75.8577 64.2943 76.5134 63.6384 76.5134 62.8295V46.0592H85.3514V80.0138H76.5134V69.6654C76.5134 68.8564 75.8577 68.2005 75.0485 68.2005C74.2394 68.2005 73.5837 68.8564 73.5837 69.6654V81.0112L68.4329 88.2612H31.5673L26.4165 81.0112V45.0618L31.5673 37.8116H68.4331L73.5839 45.0618V62.8295C73.5837 63.6384 74.2395 64.2943 75.0485 64.2943ZM10.1621 37.8116H27.9735L24.1956 43.1295H13.94L10.1621 37.8116ZM23.4868 46.0592V80.0138H14.6486V46.0592H23.4868ZM13.94 82.9434H24.1954L27.9733 88.2612H10.1621L13.94 82.9434ZM96.5818 91.1909C96.8512 91.1909 97.0701 91.41 97.0701 91.6792V96.5619C97.0701 96.8311 96.8512 97.0502 96.5818 97.0502H3.41816C3.14902 97.0502 2.92988 96.8311 2.92988 96.5619V91.6792C2.92988 91.41 3.14902 91.1909 3.41816 91.1909H96.5818ZM89.8381 88.2612H72.0269L75.805 82.9434H86.0602L89.8381 88.2612ZM86.06 43.1295H75.8048L72.0267 37.8116H89.8379L86.06 43.1295Z" fill="white"/>
<path d="M74 70V63H76V70H74Z" fill="white" stroke="white"/>
<path d="M27.4138 12.0618L22.1562 14.9579L23.258 16.322L28.5157 13.426L27.4138 12.0618Z" fill="white" stroke="white"/>
</g>
<defs>
<clipPath id="clip0_22_144">
<rect width="100" height="100" fill="white"/>
</clipPath>
</defs>
</svg>
