<svg width="80" height="80" viewBox="0 0 80 80" fill="none" xmlns="http://www.w3.org/2000/svg">
<path d="M79.824 51.3333L75.6307 44H78.6667C79.0203 44 79.3594 43.8595 79.6095 43.6095C79.8595 43.3594 80 43.0203 80 42.6667C80 42.313 79.8595 41.9739 79.6095 41.7239C79.3594 41.4738 79.0203 41.3333 78.6667 41.3333H63.8107C63.5196 40.1899 62.8559 39.176 61.9244 38.4519C60.9928 37.7277 59.8466 37.3346 58.6667 37.3346C57.4868 37.3346 56.3405 37.7277 55.409 38.4519C54.4774 39.176 53.8137 40.1899 53.5227 41.3333H38.6667C38.313 41.3333 37.9739 41.4738 37.7239 41.7239C37.4738 41.9739 37.3333 42.313 37.3333 42.6667C37.3333 43.0203 37.4738 43.3594 37.7239 43.6095C37.9739 43.8595 38.313 44 38.6667 44H41.7027L37.5093 51.3333L37.5267 51.344C37.4046 51.5414 37.3378 51.768 37.3333 52V53.3333C37.3333 53.3707 37.344 53.4053 37.344 53.4427C36.8992 53.3743 36.45 53.3378 36 53.3333H33.7773L29.3333 50V46.1787C31.1891 45.1077 32.7633 43.6104 33.9258 41.8106C35.0883 40.0107 35.8057 37.96 36.0187 35.828C36.7844 35.6301 37.4962 35.2636 38.1022 34.7555C38.7082 34.2473 39.193 33.6101 39.5213 32.8906C39.8495 32.1711 40.0129 31.3873 39.9996 30.5966C39.9862 29.8058 39.7964 29.028 39.444 28.32C40.4315 24.5242 40.097 20.5053 38.4955 16.9251C36.894 13.3448 34.1211 10.4166 30.6333 8.62267C30.6507 8.41467 30.6667 8.208 30.6667 8C30.6667 5.87827 29.8238 3.84344 28.3235 2.34315C26.8232 0.842855 24.7884 0 22.6667 0C20.5449 0 18.5101 0.842855 17.0098 2.34315C15.5095 3.84344 14.6667 5.87827 14.6667 8C14.6667 8.208 14.6827 8.41467 14.7 8.62267C11.2122 10.4166 8.4393 13.3448 6.83784 16.9251C5.23638 20.5053 4.90185 24.5242 5.88933 28.32C5.52726 29.0495 5.33706 29.8523 5.33333 30.6667C5.3294 31.8528 5.72746 33.0052 6.46261 33.936C7.19776 34.8668 8.2266 35.521 9.38133 35.792C9.57076 37.9266 10.271 39.9844 11.423 41.7915C12.5749 43.5985 14.1448 45.1019 16 46.1747V50L11.556 53.3333H9.33333C6.85895 53.3365 4.48683 54.3209 2.73718 56.0705C0.987525 57.8202 0.00317522 60.1923 0 62.6667L0 74.6667C0 76.0812 0.561903 77.4377 1.5621 78.4379C2.56229 79.4381 3.91885 80 5.33333 80H40C41.4145 80 42.771 79.4381 43.7712 78.4379C44.7714 77.4377 45.3333 76.0812 45.3333 74.6667V62.6667C45.3337 61.2825 45.0244 59.9158 44.428 58.6667H45.3333C46.7478 58.6667 48.1044 58.1048 49.1046 57.1046C50.1048 56.1044 50.6667 54.7478 50.6667 53.3333V52C50.6612 51.7698 50.5945 51.5452 50.4733 51.3493L50.4907 51.3387L46.2973 44H53.5227C53.7307 44.7984 54.1225 45.5372 54.6667 46.1573V66.856C53.5251 67.1507 52.5134 67.8154 51.7897 68.7461C51.066 69.6768 50.6711 70.8211 50.6667 72V72.2453C49.8895 72.5201 49.2161 73.0283 48.7388 73.7004C48.2614 74.3725 48.0034 75.1757 48 76V77.3333C48 78.0406 48.281 78.7189 48.781 79.219C49.2811 79.7191 49.9594 80 50.6667 80H66.6667C67.3739 80 68.0522 79.7191 68.5523 79.219C69.0524 78.7189 69.3333 78.0406 69.3333 77.3333V76C69.3299 75.1757 69.0719 74.3725 68.5946 73.7004C68.1172 73.0283 67.4439 72.5201 66.6667 72.2453V72C66.6622 70.8211 66.2673 69.6768 65.5436 68.7461C64.8199 67.8154 63.8082 67.1507 62.6667 66.856V46.1573C63.2109 45.5372 63.6026 44.7984 63.8107 44H71.036L66.8427 51.3333L66.86 51.344C66.7379 51.5414 66.6712 51.768 66.6667 52V53.3333C66.6667 54.7478 67.2286 56.1044 68.2288 57.1046C69.229 58.1048 70.5855 58.6667 72 58.6667H74.6667C76.0812 58.6667 77.4377 58.1048 78.4379 57.1046C79.4381 56.1044 80 54.7478 80 53.3333V52C79.9946 51.7698 79.9278 51.5452 79.8067 51.3493L79.824 51.3333ZM44 45.3547L47.036 50.6667H40.964L44 45.3547ZM25.916 77.3333C30.2788 72.3261 33.1396 66.189 34.1693 59.628L37.3613 66.496L29.4933 77.3333H25.916ZM15.84 77.3333L8 66.5573L11.172 59.6613C12.2056 66.2097 15.0632 72.3343 19.4173 77.3333H15.84ZM24 58.0373L26.4853 60.6893C26.6827 60.8943 26.9196 61.057 27.1817 61.1677C27.4438 61.2784 27.7256 61.3346 28.0101 61.3331C28.2946 61.3316 28.5758 61.2724 28.8367 61.159C29.0977 61.0456 29.3328 60.8803 29.528 60.6733L31.6427 58.4173C30.7741 64.7133 28.1222 70.6292 24 75.4667V58.0373ZM21.3333 75.4667C17.219 70.6264 14.5697 64.7136 13.696 58.4213L15.8187 60.688C16.016 60.8929 16.2529 61.0557 16.515 61.1664C16.7771 61.277 17.0589 61.3333 17.3434 61.3318C17.6279 61.3303 17.9092 61.2711 18.1701 61.1576C18.431 61.0442 18.6662 60.879 18.8613 60.672L21.3333 58.0373V75.4667ZM28 58.4L24.6573 54.84L28 52.3333L31.3427 54.84L28 58.4ZM22.6667 2.66667C23.9901 2.67061 25.2645 3.16755 26.2412 4.06048C27.218 4.95342 27.827 6.17827 27.9493 7.496C24.5143 6.39027 20.819 6.39027 17.384 7.496C17.5064 6.17827 18.1153 4.95342 19.0921 4.06048C20.0688 3.16755 21.3433 2.67061 22.6667 2.66667ZM22.6667 9.33333C26.5551 9.33792 30.283 10.8846 33.0325 13.6342C35.782 16.3837 37.3287 20.1116 37.3333 24C37.3307 24.6619 37.2839 25.323 37.1933 25.9787C36.78 25.7447 36.3381 25.5655 35.8787 25.4453C35.176 22.0813 31.7267 21.312 28.956 20.6987C26.1853 20.0853 24.4747 19.6 24.092 18.1333C23.9466 17.5083 23.583 16.9557 23.0666 16.5749C22.5501 16.1941 21.9147 16.0101 21.2747 16.056C14.7587 16.5307 9.98667 20.3387 9.34267 25.504C8.9242 25.6163 8.52117 25.7798 8.14267 25.9907C7.85126 23.9152 8.00935 21.8014 8.60622 19.7924C9.2031 17.7834 10.2248 15.9261 11.6022 14.3465C12.9795 12.7668 14.6803 11.5017 16.5893 10.6368C18.4983 9.77182 20.5709 9.32731 22.6667 9.33333ZM12.0373 35.568C11.9817 35.0151 11.7538 34.4935 11.3859 34.0771C11.0179 33.6606 10.5285 33.3701 9.98667 33.2467C9.41462 33.0974 8.90839 32.7623 8.54755 32.294C8.18672 31.8256 7.99174 31.2507 7.99326 30.6595C7.99479 30.0683 8.19274 29.4944 8.55598 29.0279C8.91923 28.5615 9.42719 28.229 10 28.0827C10.5307 27.9606 11.0113 27.679 11.3771 27.2756C11.743 26.8723 11.9767 26.3667 12.0467 25.8267C12.4947 21.888 16.192 19.0947 21.46 18.7067C21.487 18.7314 21.5052 18.7641 21.512 18.8C22.332 21.9573 25.5427 22.6667 28.376 23.3013C31.2093 23.936 32.9413 24.4227 33.268 25.988C33.3723 26.4938 33.6191 26.9592 33.9795 27.3292C34.3398 27.6992 34.7985 27.9583 35.3013 28.076C35.878 28.2165 36.3914 28.5454 36.7601 29.0106C37.1287 29.4758 37.3317 30.0507 37.3367 30.6442C37.3418 31.2377 37.1487 31.816 36.7879 32.2874C36.4272 32.7588 35.9196 33.0964 35.3453 33.2467C34.8036 33.3706 34.3145 33.6614 33.9468 34.0781C33.5791 34.4948 33.3515 35.0164 33.296 35.5693C33.0724 38.2346 31.8557 40.7186 29.887 42.5291C27.9183 44.3395 25.3413 45.3443 22.6667 45.3443C19.992 45.3443 17.415 44.3395 15.4463 42.5291C13.4776 40.7186 12.2609 38.2346 12.0373 35.5693V35.568ZM22.6667 48C24.0247 47.9971 25.3741 47.7834 26.6667 47.3667V50L22.6667 53L18.6667 50V47.3667C19.9592 47.7835 21.3086 47.9972 22.6667 48ZM17.3333 52.3333L20.676 54.84L17.3333 58.4L13.9907 54.84L17.3333 52.3333ZM2.66667 74.6667V62.6667C2.66878 60.8992 3.37184 59.2047 4.62163 57.955C5.87141 56.7052 7.56587 56.0021 9.33333 56H9.92L5.572 65.452C5.38526 65.8716 5.30939 66.3322 5.35165 66.7895C5.3939 67.2469 5.55287 67.6857 5.81333 68.064L12.544 77.3333H5.33333C4.62609 77.3333 3.94781 77.0524 3.44772 76.5523C2.94762 76.0522 2.66667 75.3739 2.66667 74.6667ZM42.6667 74.6667C42.6667 75.3739 42.3857 76.0522 41.8856 76.5523C41.3855 77.0524 40.7072 77.3333 40 77.3333H32.7893L39.556 68.0093C39.8043 67.6336 39.953 67.201 39.9883 66.752C40.0235 66.303 39.944 65.8525 39.7573 65.4427L35.4133 56H36C36.8097 56.0084 37.6112 56.1638 38.3653 56.4587C39.0417 57.3811 39.9966 58.0617 41.0893 58.4C42.1075 59.5884 42.667 61.1018 42.6667 62.6667V74.6667ZM45.3333 56H42.6667C41.9594 56 41.2811 55.7191 40.7811 55.219C40.281 54.7189 40 54.0406 40 53.3333H48C48 54.0406 47.7191 54.7189 47.219 55.219C46.7189 55.7191 46.0406 56 45.3333 56ZM57.3333 47.8107C58.2043 48.0631 59.129 48.0631 60 47.8107V66.6667H57.3333V47.8107ZM58.6667 40C59.1941 40 59.7097 40.1564 60.1482 40.4494C60.5867 40.7424 60.9285 41.1589 61.1303 41.6462C61.3322 42.1334 61.385 42.6696 61.2821 43.1869C61.1792 43.7042 60.9252 44.1793 60.5523 44.5523C60.1793 44.9252 59.7042 45.1792 59.1869 45.2821C58.6696 45.385 58.1334 45.3322 57.6462 45.1303C57.1589 44.9285 56.7424 44.5867 56.4494 44.1482C56.1564 43.7097 56 43.1941 56 42.6667C56 41.9594 56.281 41.2811 56.781 40.7811C57.2811 40.281 57.9594 40 58.6667 40ZM50.6667 77.3333V76C50.6667 75.6464 50.8071 75.3072 51.0572 75.0572C51.3072 74.8071 51.6464 74.6667 52 74.6667H65.3333C65.687 74.6667 66.0261 74.8071 66.2761 75.0572C66.5262 75.3072 66.6667 75.6464 66.6667 76V77.3333H50.6667ZM64 72H53.3333C53.3333 71.2928 53.6143 70.6145 54.1144 70.1144C54.6145 69.6143 55.2928 69.3333 56 69.3333H61.3333C62.0406 69.3333 62.7189 69.6143 63.219 70.1144C63.7191 70.6145 64 71.2928 64 72ZM76.3693 50.6667H70.2973L73.3333 45.3547L76.3693 50.6667ZM74.6667 56H72C71.2928 56 70.6145 55.7191 70.1144 55.219C69.6143 54.7189 69.3333 54.0406 69.3333 53.3333H77.3333C77.3333 54.0406 77.0524 54.7189 76.5523 55.219C76.0522 55.7191 75.3739 56 74.6667 56Z" fill="white"/>
</svg>
