<svg width="80" height="80" viewBox="0 0 80 80" fill="none" xmlns="http://www.w3.org/2000/svg">
<g clip-path="url(#clip0_27_162)">
<path d="M37.6918 59.2017C37.0901 58.7602 36.2434 58.8891 35.8012 59.4911L35.6341 59.7184C35.1924 60.32 35.321 61.1655 35.9219 61.6081C36.1634 61.7861 36.4446 61.872 36.7232 61.872C37.1377 61.872 37.547 61.682 37.812 61.323L37.9815 61.0925C38.4235 60.4905 38.2938 59.6439 37.6918 59.2017Z" fill="white"/>
<path d="M38.0447 72.0691L34.5661 65.7438L37.814 61.3203C38.2563 60.7183 38.1265 59.8717 37.5243 59.4295C36.9222 58.9872 36.0757 59.117 35.6336 59.7194L31.8746 64.8389C31.5629 65.2633 31.526 65.8298 31.7796 66.2913L35.6746 73.3727V73.3725C35.921 73.8202 36.3836 74.0734 36.861 74.0734C37.0815 74.0733 37.3049 74.0194 37.5116 73.9058C38.166 73.5459 38.4047 72.7236 38.0447 72.0691Z" fill="white"/>
<path d="M48.1257 64.8392L44.3819 59.7405C44.0715 59.3178 43.5454 59.1124 43.0307 59.2142C42.5162 59.3153 42.1066 59.705 41.9794 60.2136C41.8818 60.6042 41.9632 61.0177 42.2015 61.3422L45.4334 65.7441L41.9785 72.0264C41.8688 72.2259 41.8112 72.4509 41.8112 72.6789C41.8112 73.2963 42.2293 73.8353 42.8273 73.9889C42.9393 74.0178 43.0523 74.0317 43.1638 74.0317C43.648 74.0317 44.1069 73.7705 44.349 73.3309L48.2205 66.2919C48.4745 65.8302 48.4373 65.2636 48.1257 64.8392Z" fill="white"/>
<path d="M50.269 43.5834C49.8241 43.3498 49.2863 43.3817 48.8724 43.667C48.0679 44.2212 47.3213 44.8084 46.6535 45.412C43.0135 48.7026 39.5552 48.2573 39.4197 48.238C39.3382 48.2251 39.2552 48.2192 39.1732 48.2219C37.7346 48.2587 35.1408 46.9442 32.3969 44.7892C31.9772 44.4597 31.5469 44.1456 31.1172 43.8556C30.7029 43.5756 30.1674 43.5473 29.7258 43.7822C29.2841 44.0169 29.008 44.4762 29.008 44.9765V49.6165C29.008 50.0269 29.1947 50.4147 29.5147 50.6715C29.5526 50.702 29.5919 50.7301 29.6326 50.7561L39.2233 57.1648C39.2249 57.1658 39.2263 57.167 39.2279 57.1681L39.2532 57.185C39.479 57.3344 39.7391 57.4098 40.0002 57.4098C40.2199 57.4098 40.4396 57.3565 40.6404 57.2492C40.6827 57.2265 40.7233 57.2017 40.7624 57.1751C40.7669 57.1722 40.7715 57.1692 40.7762 57.1661C40.7815 57.1626 40.7868 57.159 40.7921 57.1554L50.3602 50.7619C50.3986 50.7375 50.4361 50.7112 50.4722 50.6831C50.8005 50.4269 50.9924 50.0336 50.9924 49.617V44.7809C50.9924 44.2781 50.714 43.8173 50.269 43.5834ZM48.2871 48.8931L40.0001 54.4306L31.7132 48.8929V47.6628C33.731 49.1292 36.6993 50.9278 39.1188 50.9276C39.1238 50.9276 39.1294 50.9276 39.1346 50.9276C39.9469 51.0175 44.0896 51.2617 48.2874 47.5792V48.8931H48.2871Z" fill="white"/>
<path d="M41.3343 55.835C41.2451 55.2985 40.843 54.8678 40.314 54.7415C39.7846 54.6161 39.2318 54.8184 38.9099 55.2568L35.801 59.4914C35.3588 60.0935 35.4885 60.9401 36.0908 61.3821C36.3319 61.5593 36.6122 61.6446 36.8902 61.6446C37.3061 61.6446 37.7165 61.4532 37.9818 61.0921L41.0744 56.88C41.2504 56.65 41.3529 56.3637 41.3529 56.0578C41.3527 55.9834 41.3465 55.9084 41.3343 55.835Z" fill="white"/>
<path d="M60.6064 12.2301C60.5795 12.0182 59.9459 7.44541 55.6416 5.6415C55.7666 4.83838 55.7535 3.80619 55.2436 2.80197C54.5583 1.45229 53.206 0.572754 51.2239 0.187441C51.1389 0.170879 51.0527 0.162598 50.966 0.162598H32.8117C25.4402 0.162598 19.4428 6.15979 19.4428 13.5317V20.6553C19.4428 22.5112 20.0755 24.321 21.2239 25.751C21.7933 26.4601 22.4946 27.6984 22.6003 29.5706C22.6416 30.3015 23.2535 30.8664 23.9889 30.846C24.7208 30.8254 25.3033 30.226 25.3033 29.494V20.2065C26.2217 16.4082 29.3563 15.669 29.8952 15.5692H35.7674C36.4581 15.5692 37.1374 15.4637 37.7866 15.2556C38.9031 14.8974 40.6746 14.2384 41.9642 13.7485C42.8271 13.4206 43.7824 13.4085 44.6538 13.7148L50.9403 15.9217C54.0831 17.081 54.6441 19.8401 54.7136 20.2735V31.4199C54.7136 32.1279 55.2594 32.7153 55.9653 32.7679C55.9997 32.7704 56.0335 32.7718 56.0672 32.7718C56.7306 32.7717 57.3035 32.2856 57.4039 31.6195C57.4092 31.5846 57.9492 28.096 59.6908 25.3029C60.2967 24.3306 60.6172 23.222 60.6172 22.097V12.4009C60.6172 12.3438 60.6136 12.2868 60.6064 12.2301ZM57.9119 22.0964C57.9119 22.7006 57.7414 23.2999 57.4186 23.8329V20.181C57.4186 20.1321 57.416 20.0835 57.4106 20.0349C57.3894 19.8385 56.8305 15.2032 51.8641 13.3788C51.858 13.3767 51.8519 13.3745 51.8458 13.3723L45.5497 11.162C44.8399 10.9128 44.0972 10.7884 43.355 10.7884C42.5569 10.7884 41.7592 10.9323 41.0035 11.2198C39.1978 11.9057 37.7996 12.4106 36.9603 12.6796C36.5786 12.802 36.1772 12.8642 35.7672 12.8642H29.7858C29.7278 12.8642 29.6697 12.8679 29.6121 12.8753C29.3831 12.9049 23.9883 13.6721 22.6307 19.7573C22.6091 19.854 22.5982 19.9528 22.5982 20.0518V22.8356C22.3036 22.1549 22.1477 21.4115 22.1477 20.6554V13.532C22.1477 7.65197 26.9316 2.86807 32.8114 2.86807H50.8294C51.5753 3.02697 52.4819 3.35307 52.8258 4.0165C53.2469 4.82854 52.7672 5.94666 52.7667 5.9476C52.5938 6.31557 52.5958 6.74166 52.7716 7.10807C52.9475 7.47447 53.2791 7.74229 53.6744 7.83744C57.1178 8.66635 57.8202 11.969 57.9117 12.5032V22.0964H57.9119Z" fill="white"/>
<path d="M57.4108 20.035C57.3896 19.8386 56.8307 15.2033 51.8643 13.379C51.8582 13.3768 51.8521 13.3746 51.846 13.3724L45.5499 11.1621C44.0765 10.6449 42.4621 10.6655 41.0035 11.2196C39.1979 11.9055 37.7996 12.4104 36.9604 12.6796C36.5786 12.8019 36.1772 12.864 35.7672 12.864H29.7858C29.7279 12.864 29.6697 12.8677 29.6121 12.875C29.3832 12.9047 23.9883 13.6719 22.6307 19.7571C22.6091 19.8538 22.5982 19.9525 22.5982 20.0516V31.6791C22.5982 31.6891 22.5983 31.6991 22.5985 31.7091C22.6074 32.113 22.8932 41.6516 29.4838 46.014L29.5179 46.038C29.5461 46.058 29.5744 46.078 29.604 46.0979C29.9797 46.3516 30.3571 46.6271 30.7261 46.9168C32.6461 48.4244 36.2644 50.9277 39.1188 50.9277C39.1241 50.9277 39.1291 50.9277 39.1346 50.9277C39.2896 50.9447 39.5663 50.9676 39.9416 50.9676C41.5593 50.9676 45.0105 50.5436 48.4674 47.4186C49.0476 46.8944 49.6999 46.3816 50.4071 45.8944L50.5082 45.8236C50.5412 45.8004 50.5741 45.7769 50.6082 45.7541C52.8066 44.2776 56.6141 40.4676 57.4135 31.5404C57.4171 31.5004 57.419 31.4599 57.419 31.4196V20.1811C57.4188 20.1324 57.416 20.0838 57.4108 20.035ZM54.7135 31.3585C53.9765 39.4151 50.5438 42.5383 49.0997 43.5082C49.0485 43.5427 48.9979 43.5783 48.9472 43.614L48.8722 43.6668C48.0677 44.221 47.3211 44.8082 46.6533 45.4118C43.0269 48.6902 39.5799 48.2602 39.4108 48.2365C39.3322 48.2247 39.2526 48.2197 39.173 48.2219C37.7344 48.2588 35.1407 46.9443 32.3968 44.7893C31.9771 44.4596 31.5468 44.1455 31.1177 43.856L31.0844 43.8326C31.0519 43.8094 31.0196 43.7865 30.9815 43.7611C25.663 40.241 25.315 32.0033 25.3033 31.6596V20.2065C26.225 16.3943 29.379 15.6635 29.893 15.5691H35.7674C36.4582 15.5691 37.1374 15.4636 37.7866 15.2555C38.9032 14.8974 40.6747 14.2383 41.9643 13.7485C42.8271 13.4205 43.7824 13.4085 44.6538 13.7147L50.9404 15.9216C54.0832 17.081 54.6441 19.84 54.7136 20.2735V31.3585H54.7135Z" fill="white"/>
<path d="M41.2098 55.4529C40.999 55.0314 40.584 54.75 40.1144 54.71C39.6457 54.6712 39.1885 54.8773 38.9096 55.2573L35.6696 59.6701C35.2279 60.272 35.3569 61.1179 35.9583 61.5603C36.1996 61.7378 36.4804 61.8236 36.7587 61.8236C37.1737 61.8236 37.5833 61.6331 37.8485 61.2732L41.0887 56.8767C41.2601 56.6442 41.3526 56.347 41.3526 56.0582C41.3527 55.8484 41.3035 55.6409 41.2098 55.4529Z" fill="white"/>
<path d="M41.2965 77.2308C40.7884 76.6994 39.9488 76.6711 39.4063 77.1675L39.0971 77.4504C38.6341 77.8736 38.523 78.5599 38.829 79.1077L38.8385 79.1247C39.0451 79.4949 39.4135 79.7468 39.8334 79.805C39.8955 79.8136 39.9577 79.8179 40.0196 79.8179C40.3757 79.8179 40.7205 79.6771 40.976 79.4216L41.2755 79.1218C41.7954 78.6019 41.8048 77.7619 41.2965 77.2308Z" fill="white"/>
<path d="M40.903 77.4505L40.5938 77.1677C40.0513 76.6714 39.2116 76.6997 38.7035 77.2309C38.1952 77.7625 38.2046 78.6027 38.7246 79.1224L39.0246 79.4222C39.2801 79.6777 39.6248 79.8183 39.9809 79.8183C40.0444 79.8183 40.1084 79.8139 40.1723 79.8047C40.5935 79.7445 40.9619 79.4894 41.1668 79.1163L41.1763 79.0992C41.476 78.5524 41.3632 77.8713 40.903 77.4505Z" fill="white"/>
<path d="M40.9258 77.4715L40.9241 77.47C40.7152 77.2747 40.4451 77.1459 40.1474 77.1132C39.7488 77.0698 39.3605 77.2048 39.0782 77.4678L39.0741 77.4715C38.8007 77.7209 38.6415 78.0717 38.6335 78.4417C38.6255 78.812 38.7696 79.169 39.0319 79.43L39.0462 79.4442C39.3101 79.7065 39.6549 79.8376 39.9999 79.8376C40.3462 79.8376 40.6923 79.7054 40.9562 79.4417L40.9704 79.4275C41.2316 79.1661 41.3748 78.8093 41.3662 78.44C41.358 78.0704 41.1988 77.7206 40.9258 77.4715Z" fill="white"/>
<path d="M40.4388 54.7484C39.8787 54.569 39.264 54.777 38.9229 55.2567C38.5413 55.7939 38.6043 56.5259 39.0691 56.9929C39.3307 57.2557 39.6779 57.3904 40.0277 57.3904C40.2994 57.3904 40.5726 57.3092 40.8082 57.1432C41.1682 56.89 41.3824 56.4775 41.3824 56.0371V56.0339C41.3824 55.4453 40.9996 54.9273 40.4388 54.7484Z" fill="white"/>
<path d="M41.0991 55.2458L41.0876 55.2301C40.7405 54.7605 40.1311 54.567 39.5766 54.7497C39.0221 54.9323 38.6474 55.4505 38.6474 56.0342V56.0573C38.6474 56.5553 38.9269 57.0092 39.3657 57.2448C39.5644 57.3516 39.7838 57.4042 40.0029 57.4042C40.2671 57.4042 40.531 57.3277 40.7579 57.1773C41.0671 56.9727 41.2788 56.6498 41.3433 56.2847C41.4079 55.9197 41.3196 55.5439 41.0991 55.2458Z" fill="white"/>
<path d="M56.0905 50.9965C55.9504 50.626 55.6549 50.3357 55.2821 50.2023L50.096 48.3432C50.054 48.3282 50.0104 48.3148 49.9669 48.3042C49.5968 48.2115 49.2046 48.2795 48.8874 48.4917L39.2783 54.9126C39.2758 54.9143 39.273 54.916 39.2704 54.9179L40.0249 56.0398L39.2535 54.9293C38.9716 55.1157 38.7698 55.4015 38.6879 55.7293C38.6429 55.9093 38.6355 56.0973 38.666 56.2803C38.7009 56.4893 38.7843 56.6874 38.9099 56.8585L45.9451 66.4399C46.2007 66.7884 46.6063 66.9921 47.0351 66.9921C47.0644 66.9921 47.094 66.991 47.1235 66.989C47.5843 66.9587 47.9979 66.6959 48.2204 66.291L56.0105 52.1273C56.2016 51.7801 56.2309 51.3667 56.0905 50.9965ZM46.8713 63.1307L41.9268 56.3964L49.824 51.1193L52.876 52.2135L46.8713 63.1307Z" fill="white"/>
<path d="M41.3327 55.8244C41.2691 55.4612 41.0602 55.1398 40.754 54.9344L31.1129 48.492C30.806 48.2867 30.4277 48.2164 30.0672 48.2964C30.0119 48.3086 29.9575 48.3245 29.9043 48.3436L24.7182 50.2026C24.3454 50.3362 24.0499 50.6265 23.9097 50.9969C23.7696 51.3673 23.7986 51.7804 23.9896 52.1276L31.7797 66.2914C32.0022 66.6961 32.4158 66.959 32.8766 66.9894C32.906 66.9912 32.9355 66.9922 32.9649 66.9922C33.3936 66.9922 33.7991 66.7884 34.0552 66.4398L37.8143 61.3203C37.8172 61.3164 37.8202 61.3122 37.8232 61.3079L41.0905 56.8578C41.3086 56.5606 41.3961 56.1875 41.3327 55.8244ZM35.634 59.7187C35.6307 59.7231 35.6275 59.7275 35.6243 59.7319L33.1285 63.1311L27.1238 52.2137L30.176 51.1197L38.073 56.3967L35.634 59.7187Z" fill="white"/>
<path d="M79.933 74.087L78.1882 63.5506C77.6383 60.2301 75.3307 57.4559 72.1657 56.3112L55.2854 50.204C54.7649 50.0159 54.1832 50.1634 53.8154 50.5762C53.4476 50.9892 53.368 51.5845 53.6149 52.0796L57.1393 59.1474L53.681 59.2007C53.2115 59.2081 52.7791 59.4581 52.5393 59.8618C52.2993 60.2656 52.2858 60.7646 52.5037 61.1807L53.9221 63.889L39.406 77.1682C39.3912 77.1818 39.3766 77.1956 39.3624 77.2098L39.0627 77.5095C38.6382 77.9342 38.5443 78.5879 38.8326 79.1148L38.8432 79.134C39.0805 79.5676 39.5355 79.8374 40.0299 79.8374H75.0566C76.5118 79.8374 77.8858 79.201 78.8266 78.0913C79.7676 76.9817 80.1709 75.522 79.933 74.087ZM76.7638 76.3418C76.3376 76.8443 75.7154 77.1324 75.0568 77.1324H43.4527L56.5169 65.1818C56.9701 64.7676 57.0872 64.1002 56.8022 63.5563L55.9197 61.8715L59.3301 61.819C59.7949 61.812 60.2232 61.5665 60.4649 61.1695C60.7063 60.7721 60.7271 60.279 60.5197 59.8629L57.5452 53.8979L71.2462 58.8546C73.4923 59.6671 75.1299 61.6359 75.5201 63.9923L77.2649 74.5287C77.2649 74.5288 77.2649 74.5288 77.2649 74.5288C77.3724 75.1787 77.1899 75.8393 76.7638 76.3418Z" fill="white"/>
<path d="M40.9376 77.4824L40.9218 77.4682C40.3865 76.9835 39.5643 77.005 39.0549 77.5172L39.0409 77.5315C38.6557 77.919 38.5415 78.5002 38.7512 79.0046C38.961 79.5091 39.4538 79.8377 40.0001 79.8377H40.0298C40.589 79.8377 41.0907 79.4933 41.2917 78.9716C41.4931 78.4496 41.3523 77.8577 40.9376 77.4824Z" fill="white"/>
<path d="M40.8951 77.4432C40.588 77.1668 40.1716 77.0457 39.7638 77.1152C39.3565 77.1841 39.003 77.4358 38.8043 77.798L38.7949 77.815C38.5097 78.3349 38.5965 78.9799 39.0088 79.4061L39.0137 79.4111C39.2787 79.685 39.6318 79.8232 39.9858 79.8232C40.3116 79.8232 40.6383 79.706 40.8971 79.4696L40.9113 79.4568C41.0341 79.3449 41.1354 79.2108 41.2097 79.0621C41.4821 78.5178 41.3474 77.85 40.8951 77.4432Z" fill="white"/>
<path d="M40.9534 77.5258L40.9478 77.52C40.9442 77.5164 40.9405 77.5127 40.937 77.5092L40.637 77.2095C40.623 77.1953 40.6084 77.1814 40.5937 77.1681L26.0777 63.8889L27.4962 61.1806C27.7142 60.7647 27.7006 60.2655 27.4608 59.8617C27.2208 59.4581 26.7886 59.208 26.3191 59.2006L22.8605 59.1474L26.3848 52.0795C26.6317 51.5845 26.552 50.9891 26.1844 50.5761C25.8167 50.1631 25.2342 50.0155 24.7144 50.2039L7.83422 56.3111C4.66922 57.4556 2.36141 60.2299 1.81156 63.5505L0.0667196 74.0869C-0.170937 75.5225 0.232501 76.9819 1.17344 78.0914C2.11453 79.201 3.48875 79.8374 4.94344 79.8374H40C40.5478 79.8374 41.0414 79.5069 41.2502 79.0006C41.4591 78.4944 41.3419 77.9119 40.9534 77.5258ZM4.94359 77.1324C4.28484 77.1324 3.66266 76.8442 3.23672 76.3417C2.81078 75.8394 2.62828 75.1786 2.73578 74.5286L4.48063 63.9922C4.87078 61.6355 6.50844 59.667 8.75453 58.8545L22.4553 53.8978L19.4809 59.8625C19.2734 60.2786 19.2941 60.7717 19.5358 61.1691C19.7772 61.5663 20.2058 61.8116 20.6706 61.8186L24.0809 61.8713L23.1984 63.5561C22.9136 64.0999 23.0308 64.7674 23.4836 65.1816L36.5478 77.1324H4.94359Z" fill="white"/>
<path d="M44.6038 60.8684C44.7015 60.4778 44.6201 60.0642 44.3818 59.7397L41.0902 55.257C40.7443 54.7858 40.1343 54.5984 39.579 54.7806C39.2791 54.8789 39.0321 55.0773 38.8677 55.3309L35.6363 59.7155C35.5901 59.778 35.549 59.8452 35.5141 59.9148C35.2927 60.3578 35.331 60.8862 35.6138 61.2927L36.9899 63.2687L35.524 72.5089C35.4769 72.8056 35.53 73.1094 35.6747 73.3727L38.8151 79.0822C39.0527 79.5145 39.5071 79.783 40.0002 79.783C40.4935 79.783 40.9477 79.5145 41.1854 79.0822L44.3491 73.3303C44.4588 73.1306 44.5165 72.9064 44.5165 72.6786V72.6778C44.5165 72.6069 44.5107 72.5359 44.4998 72.4658L43.0405 63.2689L44.4018 61.3145C44.4952 61.1792 44.5641 61.0278 44.6038 60.8684ZM40.0002 75.6239L38.2682 72.475L39.7469 63.1548C39.8018 62.8095 39.7207 62.4567 39.521 62.17L38.3876 60.5422L40.0041 58.3487L41.6291 60.5619L40.5093 62.17C40.3096 62.4566 40.2286 62.8095 40.2833 63.1548L41.7554 72.4325L40.0002 75.6239Z" fill="white"/>
</g>
<defs>
<clipPath id="clip0_27_162">
<rect width="80" height="80" fill="white"/>
</clipPath>
</defs>
</svg>
