<svg width="80" height="80" viewBox="0 0 80 80" fill="none" xmlns="http://www.w3.org/2000/svg">
<circle cx="40" cy="40" r="39" stroke="url(#paint0_linear_23_22)" stroke-width="2"/>
<path d="M40.1577 58.4972C37.7192 58.4972 35.5412 58.0769 33.6236 57.2365C31.7178 56.3961 30.2086 55.2301 29.0959 53.7386C27.995 52.2353 27.4032 50.4953 27.3203 48.5185H32.8956C32.9666 49.5956 33.3277 50.5308 33.9787 51.3239C34.6416 52.1051 35.5057 52.7088 36.571 53.1349C37.6364 53.5611 38.8201 53.7741 40.1222 53.7741C41.5545 53.7741 42.821 53.5256 43.9219 53.0284C45.0346 52.5312 45.9046 51.8388 46.532 50.951C47.1593 50.0514 47.473 49.0156 47.473 47.8438C47.473 46.6245 47.1593 45.5533 46.532 44.63C45.9164 43.6948 45.0109 42.9609 43.8153 42.4283C42.6316 41.8956 41.1993 41.6293 39.5185 41.6293H36.4467V37.1548H39.5185C40.8679 37.1548 42.0516 36.9122 43.0696 36.4268C44.0994 35.9415 44.9044 35.2668 45.4844 34.4027C46.0644 33.5268 46.3544 32.5028 46.3544 31.331C46.3544 30.2064 46.0999 29.2299 45.5909 28.4013C45.0938 27.5608 44.3835 26.9039 43.4602 26.4304C42.5488 25.9569 41.4716 25.7202 40.2287 25.7202C39.045 25.7202 37.9382 25.9392 36.9084 26.3771C35.8904 26.8033 35.0618 27.4188 34.4226 28.2237C33.7834 29.0168 33.4401 29.9697 33.3928 31.0824H28.0838C28.143 29.1174 28.723 27.3892 29.8239 25.8977C30.9366 24.4062 32.4044 23.2403 34.2273 22.3999C36.0502 21.5594 38.0743 21.1392 40.2997 21.1392C42.6316 21.1392 44.6439 21.5949 46.3366 22.5064C48.0412 23.406 49.3551 24.6075 50.2784 26.1108C51.2135 27.6141 51.6752 29.2595 51.6634 31.0469C51.6752 33.0829 51.107 34.8111 49.9588 36.2315C48.8224 37.652 47.3073 38.6049 45.4134 39.0902V39.3743C47.8281 39.7412 49.6984 40.7 51.0241 42.2507C52.3617 43.8014 53.0246 45.7249 53.0128 48.0213C53.0246 50.0218 52.4683 51.8151 51.3438 53.4013C50.2311 54.9875 48.71 56.2363 46.7805 57.1477C44.8511 58.0473 42.6435 58.4972 40.1577 58.4972Z" fill="white"/>
<defs>
<linearGradient id="paint0_linear_23_22" x1="40" y1="0" x2="40" y2="80" gradientUnits="userSpaceOnUse">
<stop stop-color="#FFAF59"/>
<stop offset="0.0001" stop-color="#EC9647"/>
<stop offset="1" stop-color="#E86223"/>
</linearGradient>
</defs>
</svg>
