<svg width="80" height="80" viewBox="0 0 80 80" fill="none" xmlns="http://www.w3.org/2000/svg">
<circle cx="40" cy="40" r="39" stroke="url(#paint0_linear_23_17)" stroke-width="2"/>
<path d="M27.4979 58V54.0227L39.8026 41.2741C41.1165 39.8892 42.1996 38.6759 43.0518 37.6342C43.916 36.5807 44.5611 35.5805 44.9872 34.6335C45.4134 33.6866 45.6264 32.6804 45.6264 31.6151C45.6264 30.4077 45.3423 29.366 44.7741 28.4901C44.206 27.6023 43.4306 26.9216 42.4482 26.4482C41.4657 25.9628 40.3589 25.7202 39.1278 25.7202C37.8258 25.7202 36.6894 25.9865 35.7188 26.5192C34.7481 27.0518 34.0024 27.8035 33.4815 28.7741C32.9607 29.7448 32.7003 30.8812 32.7003 32.1832H27.4624C27.4624 29.9697 27.9714 28.0343 28.9893 26.3771C30.0073 24.7199 31.4041 23.4356 33.1797 22.5241C34.9553 21.6009 36.9735 21.1392 39.2344 21.1392C41.5189 21.1392 43.5313 21.5949 45.2713 22.5064C47.0232 23.406 48.3904 24.6371 49.3729 26.1996C50.3554 27.7502 50.8466 29.5021 50.8466 31.4553C50.8466 32.8047 50.5921 34.1245 50.0831 35.4148C49.5859 36.705 48.7159 38.1432 47.473 39.7294C46.2301 41.3037 44.5019 43.2154 42.2884 45.4645L35.0618 53.0284V53.2947H51.4325V58H27.4979Z" fill="white"/>
<defs>
<linearGradient id="paint0_linear_23_17" x1="40" y1="0" x2="40" y2="80" gradientUnits="userSpaceOnUse">
<stop stop-color="#FFAF59"/>
<stop offset="0.0001" stop-color="#EC9647"/>
<stop offset="1" stop-color="#E86223"/>
</linearGradient>
</defs>
</svg>
