<svg width="34" height="36" viewBox="0 0 34 36" fill="none" xmlns="http://www.w3.org/2000/svg">
<path d="M15.332 0H18.2617C18.5221 0 18.6523 0.130208 18.6523 0.390625V34.7656C18.6523 35.026 18.5221 35.1562 18.2617 35.1562H15.332C15.0716 35.1562 14.9414 35.026 14.9414 34.7656V0.390625C14.9414 0.130208 15.0716 0 15.332 0Z" fill="#F79B38"/>
<path d="M0.390625 15.7227H33.2031C33.4635 15.7227 33.5938 15.8529 33.5938 16.1133V19.043C33.5938 19.3034 33.4635 19.4336 33.2031 19.4336H0.390625C0.130208 19.4336 0 19.3034 0 19.043V16.1133C0 15.8529 0.130208 15.7227 0.390625 15.7227Z" fill="#F79B38"/>
</svg>
