<svg width="80" height="80" viewBox="0 0 80 80" fill="none" xmlns="http://www.w3.org/2000/svg">
<path d="M63.75 16.25H61.25C60.5612 16.25 60 15.69 60 15H57.5C57.5 17.0675 59.1825 18.75 61.25 18.75H63.75C65.8175 18.75 67.5 17.0675 67.5 15C67.5 13.3725 66.4513 11.9975 65 11.48V8.75H70V6.25H57.5V8.75H62.5V11.25H60V13.75H63.75C64.4387 13.75 65 14.31 65 15C65 15.69 64.4387 16.25 63.75 16.25Z" fill="white"/>
<path d="M16.25 6.25C13.4925 6.25 11.25 8.4925 11.25 11.25V18.75H13.75V16.25H18.75V18.75H21.25V11.25C21.25 8.4925 19.0075 6.25 16.25 6.25ZM13.75 13.75V11.25C13.75 9.87125 14.8712 8.75 16.25 8.75C17.6287 8.75 18.75 9.87125 18.75 11.25V13.75H13.75Z" fill="white"/>
<path d="M36.25 32.5C36.9404 32.5 37.5 31.9404 37.5 31.25C37.5 30.5596 36.9404 30 36.25 30C35.5596 30 35 30.5596 35 31.25C35 31.9404 35.5596 32.5 36.25 32.5Z" fill="white"/>
<path d="M43.75 32.5C44.4404 32.5 45 31.9404 45 31.25C45 30.5596 44.4404 30 43.75 30C43.0596 30 42.5 30.5596 42.5 31.25C42.5 31.9404 43.0596 32.5 43.75 32.5Z" fill="white"/>
<path d="M41.25 36.25H36.25V38.75H41.25C43.3175 38.75 45 37.0675 45 35H42.5C42.5 35.69 41.9387 36.25 41.25 36.25Z" fill="white"/>
<path d="M56.165 48.2438C58.5312 46.5363 60 43.7888 60 40.795C60 38.3363 59.0425 36.025 57.3037 34.2863C55.84 32.8225 55 30.795 55 28.7238V26.25C55 25.3962 54.9113 24.565 54.7738 23.75H57.5V25.7325C57.5 27.3962 58.8538 28.75 60.5175 28.75C61.3225 28.75 62.08 28.4362 62.6512 27.8662L66.7675 23.75H71.0887C73.9688 23.75 76.4025 21.6887 76.8763 18.8462L78.67 8.08375C78.7237 7.76375 78.75 7.44125 78.75 7.1175C78.75 3.88125 76.1175 1.25 72.8825 1.25H54.6175C51.3825 1.25 48.75 3.88125 48.75 7.1175C48.75 7.44125 48.7762 7.76375 48.83 8.08125L50 15.1013C47.3425 12.715 43.8438 11.25 40 11.25C36.1562 11.25 32.6575 12.715 30 15.1013L31.17 8.08375C31.2238 7.76375 31.25 7.44125 31.25 7.1175C31.25 3.88125 28.6175 1.25 25.3825 1.25H7.1175C3.8825 1.25 1.25 3.88125 1.25 7.1175C1.25 7.44125 1.27625 7.76375 1.33 8.08125L3.12375 18.845C3.5975 21.6888 6.03125 23.75 8.91125 23.75H13.2325L17.35 27.8675C17.92 28.4363 18.6775 28.75 19.4825 28.75C21.1462 28.75 22.5 27.3962 22.5 25.7325V23.75H25.2262C25.0887 24.565 25 25.3962 25 26.25V28.7238C25 30.7938 24.16 32.8212 22.6962 34.285C20.9575 36.0238 20 38.3363 20 40.795C20 43.7825 21.4625 46.5225 23.8188 48.2312C19.95 51.5675 17.5 56.49 17.5 61.93V62.5013C17.5 67.325 21.425 71.25 26.2488 71.25H26.595L26.94 73.67C27.3538 76.5663 29.8725 78.75 32.7987 78.75H47.2013C50.1275 78.75 52.6463 76.5663 53.06 73.67L53.405 71.25H53.7513C58.575 71.25 62.5 67.325 62.5 62.5013V61.93C62.5 56.5175 60.0387 51.5888 56.165 48.2438ZM55.5363 36.0537C56.8025 37.3188 57.5 39.0038 57.5 40.795C57.5 43.2475 56.1525 45.475 54.0338 46.6488C52.8425 45.89 51.5525 45.28 50.1937 44.815C52.9437 44.1588 55 41.6963 55 38.75V35.46C55.1725 35.6625 55.3475 35.865 55.5363 36.0537ZM32.5 46.6625C33.075 46.545 33.6588 46.455 34.2563 46.4038L34.2887 46.5688C34.645 48.3512 35.8125 49.7975 37.35 50.59C36.8412 50.9987 36.25 51.25 35.625 51.25C33.9025 51.25 32.5 49.5675 32.5 47.5V46.6625ZM50 30H51.25C51.9388 30 52.5 30.56 52.5 31.25V33.75C52.5 34.44 51.9388 35 51.25 35H50V30ZM49.885 37.5H51.25C51.69 37.5 52.1075 37.41 52.5 37.27V38.75C52.5 40.8175 50.8175 42.5 48.75 42.5H47.27C47.2263 42.3763 47.1787 42.2562 47.1212 42.1375C48.5912 40.9875 49.5763 39.345 49.885 37.5ZM40 48.75C38.4212 48.75 37.05 47.6263 36.74 46.0775L36.6325 45.5375C37.015 45.2262 37.3288 44.835 37.565 44.39C37.87 46.1525 39.4012 47.5 41.25 47.5H42.585C41.9688 48.265 41.0312 48.75 40 48.75ZM45 43.75C45 44.44 44.4388 45 43.75 45H41.25C40.5612 45 40 44.44 40 43.75C40 43.06 40.5612 42.5 41.25 42.5H43.75C44.4388 42.5 45 43.06 45 43.75ZM47.5 36.25C47.5 37.915 46.685 39.4375 45.3375 40.365C44.8538 40.1375 44.3187 40 43.75 40H41.25C40.1463 40 39.1625 40.4888 38.475 41.25H37.5C34.7425 41.25 32.5 39.0075 32.5 36.25V29.9813C36.8975 29.79 41.0163 28.0513 44.2262 25.03C46.07 25.265 47.5 26.8438 47.5 28.75V36.25ZM45.585 47C45.85 46.85 46.0975 46.6762 46.3163 46.47C46.715 46.52 47.1113 46.5788 47.5 46.6575V47.5C47.5 49.5675 46.0975 51.25 44.375 51.25C43.75 51.25 43.1575 51 42.65 50.59C44.0588 49.8638 45.1362 48.5812 45.585 47ZM54.6175 3.75H72.8812C74.74 3.75 76.25 5.26125 76.25 7.1175C76.25 7.30125 76.235 7.4875 76.2038 7.67125L74.41 18.435C74.1387 20.0662 72.7412 21.25 71.0887 21.25H65.7325L60.8838 26.0975C60.5838 26.4 60 26.155 60 25.7325V21.25H54.125C53.8675 20.525 53.57 19.82 53.2088 19.1513L51.2962 7.67125C51.265 7.4875 51.25 7.3025 51.25 7.1175C51.25 5.26125 52.76 3.75 54.6175 3.75ZM40 13.75C46.8925 13.75 52.5 19.3575 52.5 26.25V27.73C52.1075 27.59 51.69 27.5 51.25 27.5H49.8737C49.2925 24.6513 46.7687 22.5 43.75 22.5H43.2325L42.8662 22.8662C39.8787 25.855 35.9062 27.5 31.6788 27.5H31.25H30H28.75C28.31 27.5 27.8925 27.59 27.5 27.73V26.25C27.5 19.3575 33.1075 13.75 40 13.75ZM30 35H28.75C28.0613 35 27.5 34.44 27.5 33.75V31.25C27.5 30.56 28.0613 30 28.75 30H30V35ZM20 21.25V25.7325C20 26.155 19.415 26.3975 19.1163 26.0987L14.2675 21.25H8.91125C7.2575 21.25 5.86125 20.0662 5.58875 18.4362L3.79625 7.67125C3.765 7.4875 3.75 7.3025 3.75 7.1175C3.75 5.26125 5.26 3.75 7.1175 3.75H25.3813C27.24 3.75 28.75 5.26125 28.75 7.1175C28.75 7.30125 28.735 7.4875 28.7037 7.67125L26.7913 19.15C26.43 19.82 26.1325 20.525 25.875 21.25H20ZM22.5 40.795C22.5 39.0038 23.1975 37.32 24.4637 36.0537C24.7537 35.7638 25.0187 35.4525 25.2712 35.13C25.8225 36.515 27.17 37.5 28.75 37.5H30.1125C30.5837 40.2875 32.59 42.5588 35.235 43.3988C35.0212 43.6675 34.7113 43.8525 34.3512 43.8775C31.2725 44.09 28.4175 45.085 25.9587 46.645C23.845 45.47 22.5 43.245 22.5 40.795ZM52.4662 60.1512L50.88 71.25H29.12L27.535 60.1525C27.5112 59.9913 27.5 59.83 27.5 59.6675C27.5 57.7838 29.0337 56.25 30.9175 56.25H49.0812C50.9662 56.25 52.5 57.7838 52.5 59.6675C52.5 59.83 52.4888 59.9912 52.4662 60.1512ZM47.2013 76.25H32.7987C31.26 76.25 29.9275 75.2 29.5187 73.75H50.4825C50.0725 75.2 48.74 76.25 47.2013 76.25ZM60 62.5013C60 65.9437 57.2025 68.7425 53.7625 68.7487L54.4775 63.75H57.5V61.25H54.8338L54.94 60.5037C54.98 60.2287 55 59.9475 55 59.6675C55 56.405 52.345 53.75 49.0825 53.75H44.375H35.625H30.9175C27.655 53.75 25 56.405 25 59.6675C25 59.9475 25.02 60.2275 25.06 60.505L25.1662 61.25H22.5V63.75H25.5238L26.2375 68.7487C22.7975 68.7425 20 65.9437 20 62.5013V61.93C20 55.3587 24.1388 49.655 30 47.385V47.5C30 50.9463 32.5238 53.75 35.625 53.75C37.345 53.75 38.9437 52.87 40 51.4137C41.0563 52.8713 42.655 53.75 44.375 53.75C47.4762 53.75 50 50.9463 50 47.5V47.3825C55.8537 49.6612 60 55.395 60 61.93V62.5013Z" fill="white"/>
<path d="M40 58.75C37.9325 58.75 36.25 60.4325 36.25 62.5C36.25 64.5675 37.9325 66.25 40 66.25V63.75C39.3112 63.75 38.75 63.19 38.75 62.5C38.75 61.81 39.3112 61.25 40 61.25C40.6887 61.25 41.25 61.81 41.25 62.5H43.75C43.75 60.4325 42.0675 58.75 40 58.75Z" fill="white"/>
<path d="M61.25 45H78.75V47.5H61.25V45Z" fill="white"/>
<path d="M61.25 50H78.75V52.5H61.25V50Z" fill="white"/>
<path d="M68.75 55H71.25V57.5H68.75V55Z" fill="white"/>
<path d="M73.75 55H76.25V57.5H73.75V55Z" fill="white"/>
<path d="M63.75 55H66.25V57.5H63.75V55Z" fill="white"/>
<path d="M1.25 31.25H18.75V33.75H1.25V31.25Z" fill="white"/>
<path d="M1.25 36.25H18.75V38.75H1.25V36.25Z" fill="white"/>
<path d="M13.75 41.25H16.25V43.75H13.75V41.25Z" fill="white"/>
<path d="M3.75 41.25H6.25V43.75H3.75V41.25Z" fill="white"/>
<path d="M8.75 41.25H11.25V43.75H8.75V41.25Z" fill="white"/>
</svg>
